<svg xmlns="http://www.w3.org/2000/svg" xmlns:xlink="http://www.w3.org/1999/xlink" width="1920" zoomAndPan="magnify" viewBox="0 0 1440 809.999993" height="1080" preserveAspectRatio="xMidYMid meet" version="1.0"><defs><g/><clipPath id="c78fa81459"><rect x="0" width="878" y="0" height="248"/></clipPath></defs><rect x="-144" width="1728" fill="#ffffff" y="-80.999999" height="971.999992" fill-opacity="1"/><rect x="-144" width="1728" fill="#ffffff" y="-80.999999" height="971.999992" fill-opacity="1"/><g transform="matrix(1, 0, 0, 1, 307, 281)"><g clip-path="url(#c78fa81459)"><g fill="#972121" fill-opacity="1"><g transform="translate(0.445645, 192.504)"><g><path d="M 37.5625 -1.390625 C 36.925781 -0.0351562 36.144531 1.03125 35.21875 1.8125 C 34.289062 2.601562 32.96875 2.675781 31.25 2.03125 C 29.539062 1.394531 28.363281 0.503906 27.71875 -0.640625 C 27.082031 -1.785156 26.582031 -3.035156 26.21875 -4.390625 C 25.863281 -5.742188 25.507812 -7.0625 25.15625 -8.34375 C 24.800781 -9.632812 24.125 -10.707031 23.125 -11.5625 C 20.976562 -13.132812 19.617188 -15.273438 19.046875 -17.984375 C 18.191406 -23.117188 17.726562 -29.253906 17.65625 -36.390625 C 17.582031 -43.523438 17.472656 -48.445312 17.328125 -51.15625 C 17.191406 -53.875 16.945312 -55.875 16.59375 -57.15625 C 16.238281 -58.445312 15.8125 -59.234375 15.3125 -59.515625 C 14.8125 -59.796875 14.128906 -60.148438 13.265625 -60.578125 C 11.703125 -61.296875 10.5625 -63.832031 9.84375 -68.1875 C 9.132812 -72.539062 8.921875 -77.640625 9.203125 -83.484375 C 9.773438 -94.472656 9.132812 -103.894531 7.28125 -111.75 C 5.5625 -119.164062 4.914062 -126.191406 5.34375 -132.828125 C 5.78125 -139.472656 6.425781 -144.148438 7.28125 -146.859375 C 8.988281 -153.140625 12.085938 -155.847656 16.578125 -154.984375 C 21.078125 -154.128906 24.644531 -153.773438 27.28125 -153.921875 C 29.925781 -154.066406 32.101562 -154.421875 33.8125 -154.984375 C 35.53125 -155.554688 37.101562 -156.128906 38.53125 -156.703125 C 39.957031 -157.273438 41.847656 -157.523438 44.203125 -157.453125 C 46.554688 -157.378906 48.695312 -157.019531 50.625 -156.375 C 52.550781 -155.738281 54.515625 -155.132812 56.515625 -154.5625 C 61.796875 -152.851562 65.9375 -152.066406 68.9375 -152.203125 C 71.9375 -152.347656 74.289062 -152.523438 76 -152.734375 C 77.707031 -152.953125 79.207031 -153.0625 80.5 -153.0625 C 83.207031 -153.0625 85.453125 -152.347656 87.234375 -150.921875 C 89.015625 -149.492188 90.046875 -147.921875 90.328125 -146.203125 C 90.617188 -144.492188 90.695312 -142.710938 90.5625 -140.859375 C 90.269531 -137.296875 89.625 -134.335938 88.625 -131.984375 C 87.625 -129.628906 87.085938 -127.664062 87.015625 -126.09375 C 86.953125 -124.519531 86.988281 -122.984375 87.125 -121.484375 C 87.269531 -119.992188 87.410156 -118.535156 87.546875 -117.109375 C 87.691406 -115.679688 87.585938 -114.144531 87.234375 -112.5 C 86.878906 -110.851562 85.988281 -109.207031 84.5625 -107.5625 C 83.132812 -105.925781 81.492188 -104.46875 79.640625 -103.1875 C 75.503906 -100.613281 72.148438 -99.679688 69.578125 -100.390625 C 67.003906 -101.109375 65.109375 -101.71875 63.890625 -102.21875 C 62.679688 -102.71875 61.507812 -103.113281 60.375 -103.40625 C 57.945312 -104.113281 55.585938 -104.179688 53.296875 -103.609375 C 51.015625 -103.046875 49.445312 -101.976562 48.59375 -100.40625 C 47.738281 -98.832031 47.414062 -97.1875 47.625 -95.46875 C 47.84375 -93.757812 48.664062 -92.226562 50.09375 -90.875 C 51.519531 -89.519531 53.484375 -88.769531 55.984375 -88.625 C 58.484375 -88.488281 60.515625 -88.488281 62.078125 -88.625 C 63.648438 -88.769531 64.9375 -88.84375 65.9375 -88.84375 C 68.070312 -88.84375 70 -87.914062 71.71875 -86.0625 C 74.289062 -83.0625 74.078125 -78.566406 71.078125 -72.578125 C 70.359375 -71.003906 69.75 -68.929688 69.25 -66.359375 C 68.75 -63.796875 68.140625 -61.265625 67.421875 -58.765625 C 66.710938 -56.265625 65.820312 -54.191406 64.75 -52.546875 C 63.6875 -50.910156 62.441406 -50.234375 61.015625 -50.515625 C 59.585938 -50.804688 58.625 -51.234375 58.125 -51.796875 C 57.625 -52.367188 57.085938 -52.875 56.515625 -53.3125 C 55.378906 -54.445312 54.09375 -54.800781 52.65625 -54.375 C 50.375 -53.800781 49.054688 -51.765625 48.703125 -48.265625 C 48.347656 -44.773438 48.238281 -41.316406 48.375 -37.890625 C 48.519531 -34.460938 48.695312 -31.535156 48.90625 -29.109375 C 49.125 -26.679688 49.09375 -24.257812 48.8125 -21.84375 C 48.382812 -16.269531 46.242188 -12.054688 42.390625 -9.203125 C 41.109375 -8.347656 40.144531 -7.171875 39.5 -5.671875 C 38.851562 -4.171875 38.207031 -2.742188 37.5625 -1.390625 Z M 37.5625 -1.390625 "/></g></g><g transform="translate(93.354259, 192.504)"><g><path d="M 49.234375 -33.1875 C 50.234375 -30.757812 51.734375 -29.546875 53.734375 -29.546875 C 55.585938 -29.546875 56.800781 -29.1875 57.375 -28.46875 C 58.375 -26.90625 58.375 -23.910156 57.375 -19.484375 C 56.800781 -16.910156 56.476562 -14.910156 56.40625 -13.484375 C 56.332031 -12.054688 56.226562 -10.84375 56.09375 -9.84375 C 55.800781 -8.132812 54.800781 -6.28125 53.09375 -4.28125 C 51.238281 -2.707031 49.203125 -1.597656 46.984375 -0.953125 C 44.773438 -0.316406 42.957031 0.175781 41.53125 0.53125 C 40.101562 0.894531 38.535156 1.503906 36.828125 2.359375 C 34.253906 3.640625 32.070312 4.207031 30.28125 4.0625 C 28.5 3.925781 27.144531 3.820312 26.21875 3.75 C 25.289062 3.675781 24.21875 3.851562 23 4.28125 C 21.789062 4.707031 20.828125 4.882812 20.109375 4.8125 C 19.398438 4.738281 18.691406 4.5625 17.984375 4.28125 C 15.835938 3.425781 13.835938 3 11.984375 3 C 9.421875 3 7.707031 -1.28125 6.84375 -9.84375 C 6.414062 -13.269531 6.34375 -16.550781 6.625 -19.6875 C 6.914062 -22.832031 7.414062 -24.867188 8.125 -25.796875 C 8.84375 -26.722656 9.703125 -27.363281 10.703125 -27.71875 C 11.703125 -28.082031 12.628906 -28.367188 13.484375 -28.578125 C 14.335938 -28.796875 15.125 -28.972656 15.84375 -29.109375 C 16.695312 -29.535156 17.160156 -31.066406 17.234375 -33.703125 C 17.304688 -36.347656 17.410156 -38.816406 17.546875 -41.109375 C 17.691406 -47.378906 18.191406 -51.800781 19.046875 -54.375 C 20.472656 -58.226562 20.257812 -61.507812 18.40625 -64.21875 C 16.550781 -67.5 15.835938 -73.640625 16.265625 -82.640625 C 16.554688 -88.054688 16.488281 -92.476562 16.0625 -95.90625 C 15.488281 -102.613281 15.269531 -107.320312 15.40625 -110.03125 C 15.550781 -112.03125 15.625 -113.597656 15.625 -114.734375 C 15.625 -115.878906 15.550781 -116.738281 15.40625 -117.3125 C 14.976562 -118.457031 13.691406 -119.066406 11.546875 -119.140625 C 9.410156 -119.210938 7.414062 -120.175781 5.5625 -122.03125 C 3.707031 -123.882812 2.925781 -126.804688 3.21875 -130.796875 C 3.644531 -134.796875 3.640625 -138.4375 3.203125 -141.71875 C 2.773438 -145 2.988281 -147.566406 3.84375 -149.421875 C 4.707031 -151.285156 5.207031 -152.859375 5.34375 -154.140625 C 5.488281 -155.421875 5.707031 -156.5625 6 -157.5625 C 6.851562 -159.84375 8.8125 -161.125 11.875 -161.40625 C 14.945312 -161.695312 17.800781 -161.664062 20.4375 -161.3125 C 23.082031 -160.957031 25.546875 -160.492188 27.828125 -159.921875 C 33.828125 -158.492188 37.753906 -157.78125 39.609375 -157.78125 C 41.035156 -157.78125 42.640625 -157.957031 44.421875 -158.3125 C 46.203125 -158.664062 47.953125 -158.988281 49.671875 -159.28125 C 53.660156 -159.988281 56.691406 -159.769531 58.765625 -158.625 C 60.835938 -157.488281 62.125 -156.132812 62.625 -154.5625 C 63.125 -153 63.375 -151.320312 63.375 -149.53125 C 63.375 -147.75 63.265625 -145.859375 63.046875 -143.859375 C 62.828125 -141.859375 62.9375 -139.71875 63.375 -137.4375 C 64.65625 -132.300781 64.722656 -128.125 63.578125 -124.90625 C 62.441406 -121.695312 61.375 -119.769531 60.375 -119.125 C 59.375 -118.488281 58.410156 -118.097656 57.484375 -117.953125 C 56.554688 -117.816406 55.628906 -117.710938 54.703125 -117.640625 C 53.773438 -117.566406 52.953125 -117.03125 52.234375 -116.03125 C 51.085938 -114.175781 50.515625 -107.039062 50.515625 -94.625 L 50.953125 -58.875 C 50.953125 -49.738281 50.378906 -41.175781 49.234375 -33.1875 Z M 49.234375 -33.1875 "/></g></g><g transform="translate(160.78793, 192.504)"><g><path d="M 25.90625 -156.28125 C 33.039062 -159.132812 36.894531 -159.421875 37.46875 -157.140625 C 41.03125 -157.992188 43.671875 -156.921875 45.390625 -153.921875 C 45.953125 -152.921875 47.054688 -150.847656 48.703125 -147.703125 C 50.347656 -144.566406 52.132812 -141.210938 54.0625 -137.640625 C 55.988281 -134.078125 57.804688 -130.722656 59.515625 -127.578125 C 61.222656 -124.441406 62.363281 -122.335938 62.9375 -121.265625 C 63.507812 -120.203125 64.222656 -119.597656 65.078125 -119.453125 C 65.929688 -119.316406 66.789062 -119.53125 67.65625 -120.09375 C 69.507812 -121.519531 70.039062 -123.660156 69.25 -126.515625 C 68.46875 -129.367188 68.113281 -131.617188 68.1875 -133.265625 C 68.257812 -134.910156 68.4375 -136.445312 68.71875 -137.875 C 69.570312 -141.863281 69.710938 -145.070312 69.140625 -147.5 C 68.578125 -149.925781 68.296875 -152.210938 68.296875 -154.359375 C 68.296875 -158.640625 71.789062 -160.78125 78.78125 -160.78125 C 80.207031 -160.78125 81.847656 -160.742188 83.703125 -160.671875 C 85.554688 -160.597656 88.335938 -160.738281 92.046875 -161.09375 C 95.765625 -161.445312 99.015625 -160.445312 101.796875 -158.09375 C 104.578125 -155.738281 105.46875 -151.566406 104.46875 -145.578125 C 103.1875 -137.441406 102.613281 -131.976562 102.75 -129.1875 C 102.894531 -126.40625 102.96875 -123.804688 102.96875 -121.390625 C 102.96875 -118.816406 102.539062 -115.03125 101.6875 -110.03125 C 100.113281 -101.1875 99.6875 -94.910156 100.40625 -91.203125 C 100.976562 -87.921875 101.265625 -85.492188 101.265625 -83.921875 L 101.265625 -80.5 C 101.265625 -80.070312 101.40625 -79.144531 101.6875 -77.71875 C 101.96875 -76.289062 101.894531 -74.828125 101.46875 -73.328125 C 101.039062 -71.828125 100.96875 -70.21875 101.25 -68.5 C 101.539062 -66.789062 101.1875 -64.828125 100.1875 -62.609375 C 99.1875 -60.398438 98.722656 -57.972656 98.796875 -55.328125 C 98.867188 -52.691406 98.691406 -50.300781 98.265625 -48.15625 C 97.835938 -46.019531 98.050781 -43.523438 98.90625 -40.671875 C 100.1875 -36.242188 99.113281 -28.46875 95.6875 -17.34375 C 95.125 -14.625 94.234375 -12.875 93.015625 -12.09375 C 91.804688 -11.3125 90.914062 -10.707031 90.34375 -10.28125 C 89.769531 -9.851562 89.34375 -8.925781 89.0625 -7.5 C 88.34375 -4.644531 86.84375 -3.359375 84.5625 -3.640625 C 81.5625 -4.066406 79.132812 -7.0625 77.28125 -12.625 C 74.71875 -20.332031 72.648438 -24.828125 71.078125 -26.109375 C 69.503906 -27.398438 68.320312 -29.1875 67.53125 -31.46875 C 66.75 -33.75 66.078125 -36.101562 65.515625 -38.53125 C 64.367188 -44.53125 63.222656 -47.992188 62.078125 -48.921875 C 60.941406 -49.847656 60.015625 -51.664062 59.296875 -54.375 C 58.585938 -57.082031 57.875 -59.007812 57.15625 -60.15625 C 56.445312 -61.300781 55.769531 -62.585938 55.125 -64.015625 C 54.476562 -65.441406 53.800781 -66.867188 53.09375 -68.296875 C 51.238281 -71.859375 49.453125 -73.425781 47.734375 -73 C 46.734375 -72.71875 46.054688 -71.46875 45.703125 -69.25 C 45.347656 -67.039062 45.03125 -64.367188 44.75 -61.234375 C 43.882812 -52.097656 42.457031 -45.53125 40.46875 -41.53125 C 41.75 -37.820312 42.707031 -34.429688 43.34375 -31.359375 C 43.988281 -28.296875 43.847656 -24.65625 42.921875 -20.4375 C 41.992188 -16.226562 41.242188 -12.835938 40.671875 -10.265625 C 40.097656 -7.703125 39.488281 -5.457031 38.84375 -3.53125 C 38.207031 -1.601562 37.460938 -0.140625 36.609375 0.859375 C 35.753906 1.859375 34.679688 2.25 33.390625 2.03125 C 32.109375 1.820312 31.253906 1.429688 30.828125 0.859375 C 30.398438 0.285156 29.972656 -0.285156 29.546875 -0.859375 C 28.546875 -2.710938 26.832031 -4.066406 24.40625 -4.921875 C 21.976562 -5.773438 20.265625 -6.84375 19.265625 -8.125 C 18.265625 -9.414062 17.617188 -10.914062 17.328125 -12.625 C 17.046875 -14.34375 16.867188 -16.195312 16.796875 -18.1875 C 16.734375 -20.1875 16.238281 -22.363281 15.3125 -24.71875 C 14.382812 -27.082031 13.921875 -29.046875 13.921875 -30.609375 C 13.921875 -32.179688 14.0625 -33.570312 14.34375 -34.78125 C 14.625 -36 14.90625 -37.210938 15.1875 -38.421875 C 15.476562 -39.640625 15.195312 -41.53125 14.34375 -44.09375 C 12.632812 -49.375 13.132812 -53.726562 15.84375 -57.15625 C 17.84375 -60.007812 18.695312 -62.4375 18.40625 -64.4375 C 17.550781 -68.570312 15.910156 -71.285156 13.484375 -72.578125 C 12.347656 -73.285156 11.78125 -74.140625 11.78125 -75.140625 C 11.78125 -77.285156 11.457031 -78.890625 10.8125 -79.953125 C 10.164062 -81.023438 10.128906 -82.414062 10.703125 -84.125 C 11.273438 -85.84375 11.203125 -87.273438 10.484375 -88.421875 C 10.484375 -88.554688 10.304688 -90.015625 9.953125 -92.796875 C 9.597656 -95.585938 9.238281 -99.15625 8.875 -103.5 C 8.519531 -107.851562 8.128906 -112.5625 7.703125 -117.625 C 7.273438 -122.695312 6.988281 -127.585938 6.84375 -132.296875 C 6.28125 -143.148438 6.390625 -149.503906 7.171875 -151.359375 C 7.953125 -153.210938 9.160156 -154.566406 10.796875 -155.421875 C 12.441406 -156.273438 14.195312 -156.847656 16.0625 -157.140625 C 20.050781 -157.566406 23.332031 -157.28125 25.90625 -156.28125 Z M 25.90625 -156.28125 "/></g></g><g transform="translate(272.321079, 192.504)"><g><path d="M 20.765625 2.5625 C 19.335938 3 17.726562 2.894531 15.9375 2.25 C 14.15625 1.601562 12.90625 0.390625 12.1875 -1.390625 C 11.476562 -3.171875 11.015625 -5.238281 10.796875 -7.59375 C 10.585938 -9.945312 10.554688 -12.476562 10.703125 -15.1875 C 10.847656 -17.90625 10.921875 -20.550781 10.921875 -23.125 C 10.921875 -28.832031 9.992188 -32.46875 8.140625 -34.03125 C 4.285156 -36.894531 2.710938 -44.175781 3.421875 -55.875 C 4.140625 -62.582031 4.925781 -67.9375 5.78125 -71.9375 C 7.207031 -78.5 7.882812 -84.0625 7.8125 -88.625 C 7.738281 -93.195312 7.878906 -96.765625 8.234375 -99.328125 C 8.597656 -101.898438 9.03125 -104.039062 9.53125 -105.75 C 10.03125 -107.46875 10.632812 -109.253906 11.34375 -111.109375 C 12.0625 -112.960938 12.703125 -116.03125 13.265625 -120.3125 C 14.691406 -131.019531 15.976562 -137.65625 17.125 -140.21875 C 18.695312 -143.789062 20.585938 -147.46875 22.796875 -151.25 C 25.015625 -155.03125 26.835938 -157.5625 28.265625 -158.84375 C 31.546875 -161.269531 36.253906 -161.484375 42.390625 -159.484375 C 46.953125 -157.921875 51.195312 -157.421875 55.125 -157.984375 C 59.050781 -158.554688 62.046875 -158.804688 64.109375 -158.734375 C 66.179688 -158.671875 68.5 -157.890625 71.0625 -156.390625 C 73.632812 -154.890625 75.632812 -153.101562 77.0625 -151.03125 C 78.488281 -148.96875 79.488281 -146.722656 80.0625 -144.296875 C 81.0625 -140.148438 81.132812 -134.898438 80.28125 -128.546875 C 79.425781 -122.203125 79.101562 -117.066406 79.3125 -113.140625 C 79.53125 -109.210938 80.390625 -105.5 81.890625 -102 C 83.390625 -98.507812 84.382812 -95.726562 84.875 -93.65625 C 85.375 -91.59375 85.800781 -89.523438 86.15625 -87.453125 C 86.519531 -85.378906 86.804688 -83.164062 87.015625 -80.8125 C 87.234375 -78.457031 87.660156 -75.78125 88.296875 -72.78125 C 88.941406 -69.789062 89.300781 -67.398438 89.375 -65.609375 C 89.445312 -63.828125 89.410156 -62.363281 89.265625 -61.21875 C 89.128906 -60.082031 88.953125 -59.050781 88.734375 -58.125 C 88.523438 -57.195312 88.597656 -55.769531 88.953125 -53.84375 C 89.304688 -51.914062 89.304688 -49.804688 88.953125 -47.515625 C 88.597656 -45.234375 88.203125 -43.023438 87.765625 -40.890625 C 86.203125 -34.328125 85.5625 -29.6875 85.84375 -26.96875 C 86.414062 -22.125 86.414062 -18.664062 85.84375 -16.59375 C 85.269531 -14.519531 84.734375 -12.84375 84.234375 -11.5625 C 83.734375 -10.28125 83.160156 -8.492188 82.515625 -6.203125 C 81.878906 -3.921875 80.5625 -1.851562 78.5625 0 C 76.570312 1.851562 74.679688 2.421875 72.890625 1.703125 C 71.109375 0.992188 69.96875 -0.0351562 69.46875 -1.390625 C 68.96875 -2.742188 68.539062 -4.132812 68.1875 -5.5625 C 67.832031 -6.988281 67.40625 -8.269531 66.90625 -9.40625 C 66.40625 -10.550781 65.507812 -11.195312 64.21875 -11.34375 C 61.9375 -11.632812 60.722656 -12.957031 60.578125 -15.3125 C 60.441406 -17.664062 60.476562 -19.734375 60.6875 -21.515625 C 60.90625 -23.296875 60.800781 -25.113281 60.375 -26.96875 C 59.945312 -28.820312 59.234375 -30.609375 58.234375 -32.328125 C 55.660156 -36.753906 52.660156 -39.179688 49.234375 -39.609375 C 44.097656 -40.316406 40.53125 -37.816406 38.53125 -32.109375 C 38.101562 -30.679688 37.78125 -28.789062 37.5625 -26.4375 C 37.351562 -24.082031 36.785156 -21.976562 35.859375 -20.125 C 34.929688 -18.269531 33.929688 -16.695312 32.859375 -15.40625 C 31.785156 -14.125 30.785156 -12.945312 29.859375 -11.875 C 28.929688 -10.8125 28.328125 -9.492188 28.046875 -7.921875 C 26.898438 -1.785156 24.472656 1.707031 20.765625 2.5625 Z M 39.8125 -87.125 C 36.957031 -79.425781 36.601562 -73.289062 38.75 -68.71875 C 40.175781 -66.144531 42.03125 -64.789062 44.3125 -64.65625 C 48.445312 -64.226562 50.90625 -64.546875 51.6875 -65.609375 C 52.476562 -66.679688 53.410156 -67.820312 54.484375 -69.03125 C 55.554688 -70.25 55.945312 -72.109375 55.65625 -74.609375 C 55.375 -77.109375 55.160156 -79.320312 55.015625 -81.25 C 54.878906 -83.175781 54.203125 -85.347656 52.984375 -87.765625 C 51.773438 -90.191406 50.953125 -92.796875 50.515625 -95.578125 C 50.085938 -98.367188 49.804688 -101.046875 49.671875 -103.609375 C 49.097656 -109.316406 47.8125 -112.171875 45.8125 -112.171875 C 44.382812 -112.171875 43.492188 -111.421875 43.140625 -109.921875 C 42.785156 -108.429688 42.535156 -106.472656 42.390625 -104.046875 C 42.242188 -96.617188 41.382812 -90.976562 39.8125 -87.125 Z M 39.8125 -87.125 "/></g></g><g transform="translate(366.942294, 192.504)"><g><path d="M 72.25 -32.421875 C 72.894531 -31.359375 73.179688 -30.078125 73.109375 -28.578125 C 73.035156 -27.078125 72.890625 -25.539062 72.671875 -23.96875 C 72.460938 -22.40625 72.5 -20.660156 72.78125 -18.734375 C 73.070312 -16.804688 73.320312 -14.945312 73.53125 -13.15625 C 73.75 -11.375 73.859375 -9.695312 73.859375 -8.125 C 73.859375 -6.5625 73.394531 -5.242188 72.46875 -4.171875 C 71.539062 -3.097656 70.148438 -2.203125 68.296875 -1.484375 C 66.441406 -0.773438 64.367188 -0.28125 62.078125 0 C 56.796875 0.425781 52.226562 -0.359375 48.375 -2.359375 C 44.8125 -4.210938 41.421875 -4.78125 38.203125 -4.0625 C 34.992188 -3.351562 32.5 -2.675781 30.71875 -2.03125 C 28.9375 -1.394531 26.867188 -0.789062 24.515625 -0.21875 C 22.160156 0.351562 19.835938 0.601562 17.546875 0.53125 C 15.265625 0.457031 13.335938 -0.820312 11.765625 -3.3125 C 10.203125 -5.8125 9.347656 -8.703125 9.203125 -11.984375 C 9.054688 -15.265625 9.554688 -18.617188 10.703125 -22.046875 C 11.847656 -25.472656 12.273438 -29.363281 11.984375 -33.71875 C 11.703125 -38.070312 11.414062 -41.78125 11.125 -44.84375 C 10.84375 -47.914062 10.84375 -50.59375 11.125 -52.875 C 11.84375 -58.300781 11.203125 -62.082031 9.203125 -64.21875 C 7.628906 -66.070312 6.84375 -68.25 6.84375 -70.75 C 6.84375 -73.25 6.914062 -75.28125 7.0625 -76.84375 C 7.207031 -78.414062 7.707031 -79.773438 8.5625 -80.921875 C 9.414062 -82.066406 9.945312 -83.03125 10.15625 -83.8125 C 10.375 -84.59375 10.34375 -85.984375 10.0625 -87.984375 C 8.914062 -96.117188 8.519531 -102.398438 8.875 -106.828125 C 9.238281 -111.253906 9.171875 -115.070312 8.671875 -118.28125 C 8.171875 -121.488281 8.0625 -124.128906 8.34375 -126.203125 C 8.632812 -128.273438 8.492188 -130.023438 7.921875 -131.453125 C 7.347656 -132.878906 7.164062 -133.910156 7.375 -134.546875 C 7.59375 -135.191406 7.554688 -136.117188 7.265625 -137.328125 C 6.984375 -138.546875 6.703125 -139.867188 6.421875 -141.296875 C 5.566406 -145.578125 5.316406 -148.5 5.671875 -150.0625 C 6.023438 -151.632812 6.738281 -153.457031 7.8125 -155.53125 C 8.882812 -157.601562 10.203125 -158.851562 11.765625 -159.28125 C 13.335938 -159.707031 14.265625 -160.0625 14.546875 -160.34375 C 14.835938 -160.632812 15.554688 -160.992188 16.703125 -161.421875 C 19.691406 -162.273438 21.898438 -162.34375 23.328125 -161.625 C 24.753906 -160.914062 26.039062 -160.523438 27.1875 -160.453125 C 28.332031 -160.378906 29.507812 -160.378906 30.71875 -160.453125 C 31.9375 -160.523438 33.113281 -160.703125 34.25 -160.984375 L 36.828125 -161.421875 C 39.816406 -162.273438 42.097656 -162.128906 43.671875 -160.984375 C 44.671875 -159.984375 45.382812 -159.195312 45.8125 -158.625 C 46.238281 -158.0625 46.3125 -157.207031 46.03125 -156.0625 C 45.738281 -154.925781 45.878906 -154 46.453125 -153.28125 C 47.023438 -152.570312 47.238281 -151.535156 47.09375 -150.171875 C 46.957031 -148.816406 46.921875 -147.816406 46.984375 -147.171875 C 47.054688 -146.535156 47.164062 -145.859375 47.3125 -145.140625 C 47.59375 -143.710938 47.445312 -142 46.875 -140 C 46.3125 -138.007812 45.957031 -136.691406 45.8125 -136.046875 C 45.664062 -135.398438 45.59375 -134.796875 45.59375 -134.234375 C 45.59375 -132.378906 45.34375 -130.628906 44.84375 -128.984375 C 44.34375 -127.335938 44.054688 -125.976562 43.984375 -124.90625 C 43.921875 -123.84375 43.890625 -122.597656 43.890625 -121.171875 L 43.890625 -116.453125 C 43.890625 -114.742188 43.78125 -112.601562 43.5625 -110.03125 C 43.351562 -107.46875 43.140625 -104.4375 42.921875 -100.9375 C 42.710938 -97.4375 42.535156 -93.90625 42.390625 -90.34375 C 41.816406 -80.925781 41.101562 -74.929688 40.25 -72.359375 C 37.96875 -71.078125 37.609375 -68.082031 39.171875 -63.375 L 40.671875 -58.875 C 42.097656 -54.59375 42.8125 -50.378906 42.8125 -46.234375 C 42.8125 -42.097656 42.457031 -38.101562 41.75 -34.25 C 45.882812 -31.96875 48.804688 -30.753906 50.515625 -30.609375 C 54.660156 -30.035156 58.410156 -30.601562 61.765625 -32.3125 C 65.117188 -34.03125 67.539062 -34.742188 69.03125 -34.453125 C 70.53125 -34.171875 71.601562 -33.492188 72.25 -32.421875 Z M 72.25 -32.421875 "/></g></g><g transform="translate(436.516715, 192.504)"><g/></g><g transform="translate(488.108825, 192.504)"><g><path d="M 82.203125 -77.28125 C 78.210938 -72.851562 74.144531 -69.285156 70 -66.578125 C 73.570312 -66.003906 76.675781 -65.109375 79.3125 -63.890625 C 81.957031 -62.679688 83.28125 -60.828125 83.28125 -58.328125 C 83.28125 -55.835938 83.5625 -54.019531 84.125 -52.875 C 84.695312 -51.738281 85.269531 -50.597656 85.84375 -49.453125 C 87.269531 -46.742188 87.585938 -43.566406 86.796875 -39.921875 C 86.015625 -36.285156 85.515625 -32.789062 85.296875 -29.4375 C 85.085938 -26.082031 84.703125 -22.835938 84.140625 -19.703125 C 82.710938 -11.992188 79.710938 -7.425781 75.140625 -6 C 71.429688 -4.851562 68.148438 -3.992188 65.296875 -3.421875 C 61.015625 2.566406 57.300781 5.347656 54.15625 4.921875 C 53.019531 4.773438 52.09375 3.988281 51.375 2.5625 C 50.664062 1.132812 49.738281 0.347656 48.59375 0.203125 C 47.457031 0.0664062 46.242188 0.210938 44.953125 0.640625 L 40.671875 2.140625 C 37.960938 2.992188 33.679688 2.421875 27.828125 0.421875 C 25.691406 -0.429688 24.125 -2.425781 23.125 -5.5625 C 22.125 -8.707031 21.226562 -10.957031 20.4375 -12.3125 C 19.65625 -13.664062 18.90625 -14.804688 18.1875 -15.734375 C 17.476562 -16.660156 16.769531 -17.410156 16.0625 -17.984375 C 13.34375 -20.410156 11.984375 -22.476562 11.984375 -24.1875 C 11.847656 -27.039062 12.097656 -30.785156 12.734375 -35.421875 C 13.378906 -40.066406 13.738281 -44.066406 13.8125 -47.421875 C 13.882812 -50.773438 13.703125 -53.953125 13.265625 -56.953125 C 12.554688 -63.367188 10.632812 -67.578125 7.5 -69.578125 C 5.925781 -70.578125 4.816406 -71.394531 4.171875 -72.03125 C 3.535156 -72.675781 3.21875 -73.640625 3.21875 -74.921875 C 3.21875 -76.210938 3.5 -78.070312 4.0625 -80.5 C 4.632812 -82.925781 5.132812 -85.492188 5.5625 -88.203125 C 5.988281 -90.910156 6.554688 -92.867188 7.265625 -94.078125 C 7.984375 -95.296875 8.378906 -97.4375 8.453125 -100.5 C 8.523438 -103.570312 8.414062 -106.425781 8.125 -109.0625 C 7.84375 -111.707031 7.5625 -113.890625 7.28125 -115.609375 C 6.851562 -119.742188 6.851562 -123.09375 7.28125 -125.65625 C 7.707031 -128.226562 7.8125 -130.617188 7.59375 -132.828125 C 7.382812 -135.046875 7.351562 -137.15625 7.5 -139.15625 C 7.925781 -144.570312 11.921875 -149.707031 19.484375 -154.5625 C 25.765625 -158.5625 31.113281 -159.488281 35.53125 -157.34375 C 38.382812 -156.207031 40.488281 -155.78125 41.84375 -156.0625 C 43.207031 -156.351562 44.242188 -156.5 44.953125 -156.5 C 45.671875 -156.5 46.53125 -156.175781 47.53125 -155.53125 C 48.53125 -154.882812 49.671875 -154.664062 50.953125 -154.875 C 52.234375 -155.09375 53.519531 -155.414062 54.8125 -155.84375 C 58.519531 -156.707031 61.300781 -156.851562 63.15625 -156.28125 C 65.007812 -155.707031 66.578125 -155.597656 67.859375 -155.953125 C 69.148438 -156.316406 70.222656 -156.5 71.078125 -156.5 C 71.929688 -156.5 73 -156.140625 74.28125 -155.421875 C 75.570312 -154.710938 76.679688 -154.285156 77.609375 -154.140625 C 78.535156 -153.992188 79.351562 -153.847656 80.0625 -153.703125 C 81.351562 -153.421875 82.425781 -152.140625 83.28125 -149.859375 C 83.851562 -148.429688 84.207031 -147.109375 84.34375 -145.890625 C 84.488281 -144.679688 84.632812 -143.503906 84.78125 -142.359375 C 85.34375 -139.929688 86.335938 -138.078125 87.765625 -136.796875 C 88.910156 -135.796875 89.484375 -134.65625 89.484375 -133.375 C 89.484375 -131.09375 89.984375 -129.628906 90.984375 -128.984375 C 91.984375 -128.335938 92.910156 -126.976562 93.765625 -124.90625 C 94.617188 -122.84375 95.257812 -120.382812 95.6875 -117.53125 C 96.832031 -110.25 96.117188 -103.613281 93.546875 -97.625 C 92.691406 -87.34375 90.125 -81.132812 85.84375 -79 C 85.132812 -78.707031 83.921875 -78.132812 82.203125 -77.28125 Z M 48.484375 -116.34375 C 48.128906 -117.414062 47.773438 -118.304688 47.421875 -119.015625 C 47.066406 -119.734375 46.492188 -119.953125 45.703125 -119.671875 C 44.921875 -119.390625 44.421875 -118.890625 44.203125 -118.171875 C 43.992188 -117.460938 43.890625 -116.609375 43.890625 -115.609375 C 43.890625 -114.609375 43.921875 -113.535156 43.984375 -112.390625 C 44.054688 -111.253906 43.984375 -110.039062 43.765625 -108.75 C 43.554688 -107.46875 43.488281 -106.253906 43.5625 -105.109375 C 43.632812 -103.972656 43.8125 -102.757812 44.09375 -101.46875 C 44.664062 -97.90625 44.988281 -94.695312 45.0625 -91.84375 C 45.132812 -88.988281 45.132812 -86.703125 45.0625 -84.984375 C 44.988281 -83.273438 44.953125 -81.78125 44.953125 -80.5 C 45.097656 -78.207031 46.171875 -76.707031 48.171875 -76 C 50.171875 -75.144531 52.382812 -76.925781 54.8125 -81.34375 C 58.519531 -87.769531 60.660156 -94.335938 61.234375 -101.046875 C 61.515625 -103.472656 61.082031 -105.71875 59.9375 -107.78125 C 58.800781 -109.851562 57.734375 -110.992188 56.734375 -111.203125 C 55.734375 -111.421875 54.519531 -111.601562 53.09375 -111.75 C 51.664062 -111.894531 50.628906 -112.429688 49.984375 -113.359375 C 49.347656 -114.285156 48.847656 -115.28125 48.484375 -116.34375 Z M 49.5625 -27.609375 C 50.914062 -28.609375 51.769531 -29.679688 52.125 -30.828125 C 52.476562 -31.972656 53.15625 -33.007812 54.15625 -33.9375 C 55.15625 -34.863281 55.800781 -36.753906 56.09375 -39.609375 C 56.519531 -44.460938 56.050781 -47.921875 54.6875 -49.984375 C 53.332031 -52.054688 52.441406 -54.59375 52.015625 -57.59375 C 50.453125 -58.59375 49.382812 -59.410156 48.8125 -60.046875 C 48.238281 -60.691406 47.664062 -60.800781 47.09375 -60.375 C 46.519531 -59.945312 46.269531 -59.335938 46.34375 -58.546875 C 46.414062 -57.765625 46.304688 -56.875 46.015625 -55.875 C 45.734375 -54.875 45.414062 -53.835938 45.0625 -52.765625 C 44.707031 -51.703125 44.707031 -50.347656 45.0625 -48.703125 C 45.414062 -47.054688 45.484375 -45.519531 45.265625 -44.09375 C 45.054688 -42.664062 44.773438 -40.773438 44.421875 -38.421875 C 44.066406 -36.066406 43.851562 -34.316406 43.78125 -33.171875 C 43.707031 -32.035156 44.3125 -30.578125 45.59375 -28.796875 C 46.882812 -27.015625 48.207031 -26.617188 49.5625 -27.609375 Z M 49.5625 -27.609375 "/></g></g><g transform="translate(586.583391, 192.504)"><g><path d="M 25.6875 -147.71875 C 27.257812 -149.144531 28.613281 -150.675781 29.75 -152.3125 C 30.894531 -153.957031 32.394531 -155.492188 34.25 -156.921875 C 39.25 -161.054688 44.242188 -162.269531 49.234375 -160.5625 C 55.367188 -158.28125 61.003906 -156.851562 66.140625 -156.28125 C 71.285156 -155.707031 75.035156 -154.421875 77.390625 -152.421875 C 79.742188 -150.421875 81.773438 -148.28125 83.484375 -146 C 87.628906 -140.582031 90.128906 -134.660156 90.984375 -128.234375 C 91.128906 -125.804688 91.554688 -124.09375 92.265625 -123.09375 C 94.117188 -119.957031 94.722656 -115.75 94.078125 -110.46875 C 93.441406 -105.1875 93.226562 -101.507812 93.4375 -99.4375 C 93.65625 -97.375 94.015625 -95.84375 94.515625 -94.84375 C 95.015625 -93.84375 95.476562 -92.84375 95.90625 -91.84375 C 97.050781 -89.125 97.625 -86.410156 97.625 -83.703125 C 97.625 -80.273438 96.484375 -76.851562 94.203125 -73.4375 C 93.203125 -72.144531 92.84375 -69.644531 93.125 -65.9375 C 93.40625 -62.226562 93.617188 -58.519531 93.765625 -54.8125 C 93.910156 -45.53125 93.410156 -39.78125 92.265625 -37.5625 C 91.128906 -35.351562 90.3125 -34.035156 89.8125 -33.609375 C 89.3125 -33.179688 88.847656 -32.828125 88.421875 -32.546875 C 86.273438 -31.546875 84.378906 -28.582031 82.734375 -23.65625 C 81.097656 -18.726562 78.921875 -14.726562 76.203125 -11.65625 C 73.492188 -8.59375 70.675781 -6.097656 67.75 -4.171875 C 64.832031 -2.242188 62.550781 -0.75 60.90625 0.3125 C 59.257812 1.382812 58.078125 2.421875 57.359375 3.421875 C 56.648438 4.421875 55.941406 5.421875 55.234375 6.421875 C 53.378906 8.703125 51.023438 9.84375 48.171875 9.84375 C 43.316406 9.84375 39.75 8.703125 37.46875 6.421875 C 36.46875 5.140625 35.394531 3.285156 34.25 0.859375 C 32.113281 -2.992188 29.257812 -6.132812 25.6875 -8.5625 C 21.695312 -11.269531 19.269531 -15.335938 18.40625 -20.765625 C 17.976562 -22.617188 17.867188 -24.472656 18.078125 -26.328125 C 18.296875 -28.179688 18.191406 -30.535156 17.765625 -33.390625 C 17.484375 -36.242188 16.910156 -38.8125 16.046875 -41.09375 C 15.191406 -43.382812 14.695312 -45.53125 14.5625 -47.53125 C 13.84375 -53.519531 11.84375 -56.726562 8.5625 -57.15625 C 6.132812 -57.445312 4.707031 -61.085938 4.28125 -68.078125 C 4.132812 -71.648438 4.273438 -75.039062 4.703125 -78.25 C 5.140625 -81.457031 5.710938 -84.203125 6.421875 -86.484375 C 7.566406 -90.628906 7.921875 -95.445312 7.484375 -100.9375 C 7.054688 -106.4375 7.0625 -111.328125 7.5 -115.609375 C 8.207031 -123.597656 9.914062 -130.085938 12.625 -135.078125 C 13.914062 -137.222656 15.804688 -139.363281 18.296875 -141.5 C 20.796875 -143.644531 23.257812 -145.71875 25.6875 -147.71875 Z M 39.28125 -86.484375 C 39.632812 -84.484375 40.347656 -82.878906 41.421875 -81.671875 C 42.492188 -80.460938 43.28125 -78.570312 43.78125 -76 C 44.28125 -73.425781 44.457031 -70.601562 44.3125 -67.53125 C 44.164062 -64.46875 44.09375 -61.546875 44.09375 -58.765625 C 44.09375 -55.984375 44.234375 -53.484375 44.515625 -51.265625 C 44.804688 -49.054688 45.238281 -47.023438 45.8125 -45.171875 C 47.382812 -40.742188 49.597656 -38.53125 52.453125 -38.53125 C 56.878906 -38.53125 59.945312 -47.09375 61.65625 -64.21875 C 62.226562 -68.925781 62.515625 -74.957031 62.515625 -82.3125 C 62.515625 -89.664062 61.367188 -96.015625 59.078125 -101.359375 C 56.796875 -106.710938 54.015625 -109.390625 50.734375 -109.390625 C 47.597656 -109.390625 44.742188 -105.894531 42.171875 -98.90625 C 39.890625 -92.625 38.925781 -88.484375 39.28125 -86.484375 Z M 39.28125 -86.484375 "/></g></g><g transform="translate(689.553535, 192.504)"><g><path d="M 84.671875 -124.8125 C 85.023438 -123.957031 85.128906 -123.03125 84.984375 -122.03125 C 84.847656 -121.03125 83.847656 -119.316406 81.984375 -116.890625 C 80.128906 -114.460938 79.023438 -111.859375 78.671875 -109.078125 C 78.316406 -106.296875 78.207031 -104.007812 78.34375 -102.21875 C 78.488281 -100.4375 78.492188 -98.90625 78.359375 -97.625 C 78.210938 -94.476562 76.5 -92.335938 73.21875 -91.203125 C 70.363281 -90.054688 68.148438 -90.125 66.578125 -91.40625 C 65.003906 -92.695312 63.71875 -94.375 62.71875 -96.4375 C 61.726562 -98.507812 60.984375 -100.296875 60.484375 -101.796875 C 59.984375 -103.296875 59.160156 -104.113281 58.015625 -104.25 C 56.015625 -104.6875 54.476562 -104.472656 53.40625 -103.609375 C 52.34375 -102.753906 51.523438 -102.039062 50.953125 -101.46875 C 49.804688 -100.332031 48.625 -99.550781 47.40625 -99.125 C 46.195312 -98.695312 45.238281 -98.265625 44.53125 -97.828125 C 43.101562 -96.835938 42.53125 -95.195312 42.8125 -92.90625 C 43.382812 -88.488281 48.3125 -81.78125 57.59375 -72.78125 C 59.300781 -71.070312 61.332031 -69.21875 63.6875 -67.21875 C 66.039062 -65.21875 68.359375 -62.9375 70.640625 -60.375 C 75.785156 -54.238281 78.640625 -47.316406 79.203125 -39.609375 C 79.773438 -31.753906 78.632812 -24.898438 75.78125 -19.046875 C 73.5 -14.335938 70.789062 -11.269531 67.65625 -9.84375 C 65.226562 -8.5625 63.582031 -6.882812 62.71875 -4.8125 C 61.863281 -2.75 61.222656 -1.25 60.796875 -0.3125 C 60.367188 0.613281 59.476562 1.394531 58.125 2.03125 C 56.769531 2.675781 55.234375 2.925781 53.515625 2.78125 C 51.804688 2.632812 50.203125 2.3125 48.703125 1.8125 C 47.203125 1.320312 45.84375 0.753906 44.625 0.109375 C 43.414062 -0.535156 42.421875 -0.925781 41.640625 -1.0625 C 40.859375 -1.207031 40.109375 -0.957031 39.390625 -0.3125 C 38.679688 0.320312 37.96875 1 37.25 1.71875 C 35.101562 3.851562 33.175781 4.671875 31.46875 4.171875 C 29.757812 3.671875 27.757812 2.847656 25.46875 1.703125 C 23.1875 0.566406 20.976562 -0.851562 18.84375 -2.5625 C 11.132812 -8.5625 8.492188 -14.703125 10.921875 -20.984375 C 12.484375 -25.117188 14.226562 -28.039062 16.15625 -29.75 C 18.082031 -31.46875 19.617188 -32.328125 20.765625 -32.328125 C 22.617188 -32.328125 23.863281 -31.648438 24.5 -30.296875 C 25.144531 -28.941406 25.679688 -27.796875 26.109375 -26.859375 C 26.546875 -25.929688 27.046875 -25.179688 27.609375 -24.609375 C 28.179688 -24.046875 29.070312 -23.476562 30.28125 -22.90625 C 31.5 -22.332031 32.820312 -21.976562 34.25 -21.84375 C 37.820312 -21.550781 40.535156 -22.976562 42.390625 -26.125 C 44.242188 -29.257812 44.957031 -32.679688 44.53125 -36.390625 C 43.53125 -43.097656 42.101562 -45.953125 40.25 -44.953125 C 38.675781 -43.953125 36.75 -43.914062 34.46875 -44.84375 C 32.1875 -45.769531 30.972656 -46.984375 30.828125 -48.484375 C 30.679688 -49.984375 30.394531 -51.445312 29.96875 -52.875 C 29.539062 -54.300781 29.039062 -55.660156 28.46875 -56.953125 C 27.1875 -60.234375 26.046875 -62.015625 25.046875 -62.296875 C 23.898438 -62.578125 22.363281 -62.71875 20.4375 -62.71875 C 18.507812 -62.71875 16.40625 -63.96875 14.125 -66.46875 C 11.84375 -68.96875 10.203125 -72.109375 9.203125 -75.890625 C 8.203125 -79.671875 7.34375 -82.953125 6.625 -85.734375 C 5.914062 -88.515625 5.273438 -90.691406 4.703125 -92.265625 C 4.140625 -93.835938 3.644531 -95.476562 3.21875 -97.1875 C 1.789062 -102.613281 1.71875 -109.609375 3 -118.171875 C 3.851562 -123.171875 5.421875 -127.5625 7.703125 -131.34375 C 9.984375 -135.125 12.550781 -138.867188 15.40625 -142.578125 C 20.832031 -149.859375 25.828125 -154.925781 30.390625 -157.78125 C 34.960938 -160.632812 38.460938 -160.921875 40.890625 -158.640625 C 43.023438 -156.773438 45.34375 -156.019531 47.84375 -156.375 C 50.34375 -156.738281 52.304688 -157.132812 53.734375 -157.5625 L 57.59375 -158.421875 C 60.019531 -158.992188 62.476562 -158.921875 64.96875 -158.203125 C 67.46875 -157.492188 69.71875 -155.066406 71.71875 -150.921875 C 72.71875 -148.785156 73.75 -146.929688 74.8125 -145.359375 C 75.882812 -143.785156 76.921875 -142.285156 77.921875 -140.859375 C 80.066406 -137.441406 81.316406 -134.625 81.671875 -132.40625 C 82.023438 -130.195312 82.523438 -128.59375 83.171875 -127.59375 C 83.816406 -126.59375 84.316406 -125.664062 84.671875 -124.8125 Z M 84.671875 -124.8125 "/></g></g><g transform="translate(776.896194, 192.504)"><g><path d="M 84.671875 -124.8125 C 85.023438 -123.957031 85.128906 -123.03125 84.984375 -122.03125 C 84.847656 -121.03125 83.847656 -119.316406 81.984375 -116.890625 C 80.128906 -114.460938 79.023438 -111.859375 78.671875 -109.078125 C 78.316406 -106.296875 78.207031 -104.007812 78.34375 -102.21875 C 78.488281 -100.4375 78.492188 -98.90625 78.359375 -97.625 C 78.210938 -94.476562 76.5 -92.335938 73.21875 -91.203125 C 70.363281 -90.054688 68.148438 -90.125 66.578125 -91.40625 C 65.003906 -92.695312 63.71875 -94.375 62.71875 -96.4375 C 61.726562 -98.507812 60.984375 -100.296875 60.484375 -101.796875 C 59.984375 -103.296875 59.160156 -104.113281 58.015625 -104.25 C 56.015625 -104.6875 54.476562 -104.472656 53.40625 -103.609375 C 52.34375 -102.753906 51.523438 -102.039062 50.953125 -101.46875 C 49.804688 -100.332031 48.625 -99.550781 47.40625 -99.125 C 46.195312 -98.695312 45.238281 -98.265625 44.53125 -97.828125 C 43.101562 -96.835938 42.53125 -95.195312 42.8125 -92.90625 C 43.382812 -88.488281 48.3125 -81.78125 57.59375 -72.78125 C 59.300781 -71.070312 61.332031 -69.21875 63.6875 -67.21875 C 66.039062 -65.21875 68.359375 -62.9375 70.640625 -60.375 C 75.785156 -54.238281 78.640625 -47.316406 79.203125 -39.609375 C 79.773438 -31.753906 78.632812 -24.898438 75.78125 -19.046875 C 73.5 -14.335938 70.789062 -11.269531 67.65625 -9.84375 C 65.226562 -8.5625 63.582031 -6.882812 62.71875 -4.8125 C 61.863281 -2.75 61.222656 -1.25 60.796875 -0.3125 C 60.367188 0.613281 59.476562 1.394531 58.125 2.03125 C 56.769531 2.675781 55.234375 2.925781 53.515625 2.78125 C 51.804688 2.632812 50.203125 2.3125 48.703125 1.8125 C 47.203125 1.320312 45.84375 0.753906 44.625 0.109375 C 43.414062 -0.535156 42.421875 -0.925781 41.640625 -1.0625 C 40.859375 -1.207031 40.109375 -0.957031 39.390625 -0.3125 C 38.679688 0.320312 37.96875 1 37.25 1.71875 C 35.101562 3.851562 33.175781 4.671875 31.46875 4.171875 C 29.757812 3.671875 27.757812 2.847656 25.46875 1.703125 C 23.1875 0.566406 20.976562 -0.851562 18.84375 -2.5625 C 11.132812 -8.5625 8.492188 -14.703125 10.921875 -20.984375 C 12.484375 -25.117188 14.226562 -28.039062 16.15625 -29.75 C 18.082031 -31.46875 19.617188 -32.328125 20.765625 -32.328125 C 22.617188 -32.328125 23.863281 -31.648438 24.5 -30.296875 C 25.144531 -28.941406 25.679688 -27.796875 26.109375 -26.859375 C 26.546875 -25.929688 27.046875 -25.179688 27.609375 -24.609375 C 28.179688 -24.046875 29.070312 -23.476562 30.28125 -22.90625 C 31.5 -22.332031 32.820312 -21.976562 34.25 -21.84375 C 37.820312 -21.550781 40.535156 -22.976562 42.390625 -26.125 C 44.242188 -29.257812 44.957031 -32.679688 44.53125 -36.390625 C 43.53125 -43.097656 42.101562 -45.953125 40.25 -44.953125 C 38.675781 -43.953125 36.75 -43.914062 34.46875 -44.84375 C 32.1875 -45.769531 30.972656 -46.984375 30.828125 -48.484375 C 30.679688 -49.984375 30.394531 -51.445312 29.96875 -52.875 C 29.539062 -54.300781 29.039062 -55.660156 28.46875 -56.953125 C 27.1875 -60.234375 26.046875 -62.015625 25.046875 -62.296875 C 23.898438 -62.578125 22.363281 -62.71875 20.4375 -62.71875 C 18.507812 -62.71875 16.40625 -63.96875 14.125 -66.46875 C 11.84375 -68.96875 10.203125 -72.109375 9.203125 -75.890625 C 8.203125 -79.671875 7.34375 -82.953125 6.625 -85.734375 C 5.914062 -88.515625 5.273438 -90.691406 4.703125 -92.265625 C 4.140625 -93.835938 3.644531 -95.476562 3.21875 -97.1875 C 1.789062 -102.613281 1.71875 -109.609375 3 -118.171875 C 3.851562 -123.171875 5.421875 -127.5625 7.703125 -131.34375 C 9.984375 -135.125 12.550781 -138.867188 15.40625 -142.578125 C 20.832031 -149.859375 25.828125 -154.925781 30.390625 -157.78125 C 34.960938 -160.632812 38.460938 -160.921875 40.890625 -158.640625 C 43.023438 -156.773438 45.34375 -156.019531 47.84375 -156.375 C 50.34375 -156.738281 52.304688 -157.132812 53.734375 -157.5625 L 57.59375 -158.421875 C 60.019531 -158.992188 62.476562 -158.921875 64.96875 -158.203125 C 67.46875 -157.492188 69.71875 -155.066406 71.71875 -150.921875 C 72.71875 -148.785156 73.75 -146.929688 74.8125 -145.359375 C 75.882812 -143.785156 76.921875 -142.285156 77.921875 -140.859375 C 80.066406 -137.441406 81.316406 -134.625 81.671875 -132.40625 C 82.023438 -130.195312 82.523438 -128.59375 83.171875 -127.59375 C 83.816406 -126.59375 84.316406 -125.664062 84.671875 -124.8125 Z M 84.671875 -124.8125 "/></g></g></g></g></g></svg>