<svg xmlns="http://www.w3.org/2000/svg" xmlns:xlink="http://www.w3.org/1999/xlink" width="1920" zoomAndPan="magnify" viewBox="0 0 1440 809.999993" height="1080" preserveAspectRatio="xMidYMid meet" version="1.0"><defs><clipPath id="d3697a3390"><path d="M 668 263.910156 L 780 263.910156 L 780 354 L 668 354 Z M 668 263.910156 " clip-rule="nonzero"/></clipPath><clipPath id="3d75c59655"><path d="M 828 423 L 869.882812 423 L 869.882812 481 L 828 481 Z M 828 423 " clip-rule="nonzero"/></clipPath><clipPath id="14285c32c7"><path d="M 827 424 L 869.882812 424 L 869.882812 480 L 827 480 Z M 827 424 " clip-rule="nonzero"/></clipPath><clipPath id="99efede69c"><path d="M 569.882812 263.910156 L 869.882812 263.910156 L 869.882812 568.410156 L 569.882812 568.410156 Z M 569.882812 263.910156 " clip-rule="nonzero"/></clipPath></defs><rect x="-144" width="1728" fill="#ffffff" y="-80.999999" height="971.999992" fill-opacity="1"/><rect x="-144" width="1728" fill="#ffffff" y="-80.999999" height="971.999992" fill-opacity="1"/><path stroke-linecap="butt" transform="matrix(0.749444, 0, 0, 0.749279, 568.897826, 263.201316)" fill="none" stroke-linejoin="miter" d="M 259.693409 310.691695 C 259.735107 310.947149 259.636075 311.150469 259.396314 311.296443 C 259.302494 311.35379 259.203463 311.390283 259.094006 311.395497 C 256.420148 311.54147 253.814049 311.536257 251.28092 311.379857 C 250.874369 311.35379 250.452181 311.140043 250.014356 310.743828 C 249.910112 310.644775 249.847566 310.509228 249.847566 310.363254 L 249.847566 290.239744 C 249.847566 289.932156 249.607805 289.687129 249.305497 289.676702 C 245.208709 289.582862 242.242968 289.489022 240.397849 289.405608 C 239.610807 289.374328 239.204256 288.972901 239.193831 288.201326 C 239.110436 283.405049 239.256378 278.765172 239.266802 274.698763 C 239.272014 271.388289 239.219892 266.013331 239.110436 258.563461 C 239.105224 258.09426 238.69346 257.729326 238.229575 257.776246 C 235.852812 258.01606 233.158105 257.96914 230.140242 257.645912 C 230.004725 257.630272 229.87442 257.572925 229.770176 257.484299 C 229.212471 256.968177 228.9258 256.316509 228.9258 255.529294 C 228.9258 253.892304 228.899739 252.708875 228.842405 251.963366 C 228.732948 250.55055 228.680826 249.356694 228.686039 248.381799 C 228.7121 243.397841 228.800707 239.107258 228.962285 235.504837 C 228.967497 235.390144 228.873678 235.29109 228.759009 235.29109 L 217.203565 235.29109 C 217.010713 235.29109 216.854347 235.44749 216.854347 235.640384 L 216.854347 246.364234 C 216.854347 246.515421 216.739679 246.630115 216.588525 246.630115 L 207.11796 246.630115 C 206.992867 246.630115 206.888623 246.734382 206.888623 246.859502 L 206.888623 257.280978 C 206.888623 257.447805 207.02414 257.583352 207.190931 257.583352 L 216.432159 257.583352 C 216.640647 257.583352 216.807438 257.750179 216.807438 257.963926 L 216.807438 288.680954 C 216.807438 288.858207 216.948167 288.993754 217.114957 288.993754 L 228.248214 288.993754 C 228.477551 288.993754 228.66519 289.181435 228.66519 289.405608 L 228.66519 299.060723 C 228.66519 299.44651 228.97271 299.754098 229.3532 299.754098 L 238.557943 299.754098 C 238.656975 299.754098 238.74037 299.837511 238.74037 299.936565 L 238.74037 320.743024 C 238.74037 320.967198 238.922797 321.144451 239.141709 321.144451 L 249.441014 321.144451 C 249.73811 321.144451 249.977871 321.394692 249.962234 321.697066 C 249.826717 324.387152 249.884051 327.181504 250.123812 330.095764 C 250.175934 330.679659 250.655457 331.138433 251.244435 331.154073 L 260.381419 331.477301 C 260.45439 331.482514 260.506512 331.425167 260.506512 331.357394 C 260.417905 330.012351 260.428329 326.999037 260.537785 322.333094 C 260.615968 319.158167 260.553422 315.289865 260.360571 310.733402 " stroke="#4a3226" stroke-width="2" stroke-opacity="1" stroke-miterlimit="4"/><g clip-path="url(#d3697a3390)"><path stroke-linecap="butt" transform="matrix(0.749444, 0, 0, 0.749279, 568.897826, 263.201316)" fill="none" stroke-linejoin="miter" d="M 205.116476 12.175575 C 195.395725 12.170362 188.974296 12.170362 185.852189 12.175575 C 185.044298 12.175575 184.648171 12.540509 184.658595 13.265164 C 184.721142 18.202201 184.731566 20.980914 184.695081 21.590876 C 184.653383 22.398944 184.252044 22.800371 183.491063 22.789945 C 179.863372 22.737811 177.622127 22.727385 176.762114 22.753451 C 176.027194 22.774305 175.651916 23.144452 175.636279 23.85868 C 175.620643 24.619829 175.610218 27.106594 175.610218 31.32419 C 175.610218 32.512833 175.730099 33.279194 177.074846 33.273981 C 180.9006 33.253128 183.063663 33.242701 183.553609 33.237488 C 184.319802 33.232274 184.705505 33.633702 184.705505 34.45741 C 184.705505 45.499275 184.705505 52.167142 184.700293 54.466227 C 184.695081 55.378563 184.298954 55.837337 183.501487 55.84255 C 181.171634 55.858191 178.935601 55.884257 176.793387 55.925964 C 176.037619 55.941604 175.66234 56.259618 175.657128 56.880006 C 175.636279 59.637865 175.620643 62.400938 175.620643 65.164011 C 175.620643 65.961653 176.021982 66.357867 176.819448 66.357867 C 184.726354 66.352653 190.850688 66.373507 195.197661 66.430854 C 195.989916 66.446494 196.391255 66.811428 196.391255 67.536083 C 196.391255 69.48066 196.391255 71.847519 196.391255 74.631445 C 196.391255 75.788807 196.187979 76.409196 194.947476 76.409196 C 175.115059 76.471756 162.371233 76.482182 156.715998 76.440476 C 155.611012 76.435262 155.386887 76.97745 155.397311 77.999266 C 155.444221 81.794581 155.428585 84.307413 155.360826 85.542975 C 155.319128 86.272844 154.928213 86.627351 154.193293 86.611711 C 152.728666 86.585644 149.971412 86.575218 145.921534 86.585644 C 144.211933 86.590858 144.404784 87.68566 144.404784 88.942076 C 144.399572 90.031665 144.409996 92.231697 144.430845 95.542171 C 144.436057 96.517066 144.681031 97.210441 145.72347 97.210441 C 184.674232 97.210441 204.647378 97.194801 205.64812 97.163521 C 206.435162 97.137454 206.836501 97.549308 206.836501 98.388657 C 206.841713 100.708595 206.846926 103.586362 206.852138 107.011529 C 206.852138 107.991638 207.123172 108.580746 208.170824 108.580746 C 221.216958 108.575533 233.304047 108.601599 244.426879 108.653733 C 248.018084 108.674586 252.709063 108.664159 258.494604 108.627666 C 259.166977 108.622453 259.735107 108.544253 260.204205 108.387852 C 260.303237 108.351359 260.397056 108.299225 260.475239 108.231452 C 260.845305 107.913438 261.303979 107.757037 261.840835 107.767464 C 264.728393 107.798744 267.271946 107.783104 269.46107 107.730971 C 269.758165 107.720544 269.992714 107.48073 269.992714 107.188783 L 269.992714 98.550271 C 269.992714 98.20619 269.716468 97.929883 269.36725 97.929883 L 239.970449 97.929883 C 239.548261 97.929883 239.193831 97.611869 239.152134 97.189588 C 238.896736 94.645475 238.808129 91.960603 238.886312 89.129757 C 238.896736 88.728329 239.110436 88.102728 238.823765 87.68566 C 238.735158 87.555327 238.589216 87.477126 238.427638 87.477126 C 232.855798 87.534473 226.788798 87.508406 220.231852 87.393713 C 219.747118 87.378073 218.939227 87.294659 217.813392 87.127832 C 217.375567 87.065272 217.047199 86.689911 217.047199 86.241564 L 217.047199 67.770683 C 217.047199 67.395322 216.744891 67.092948 216.369613 67.098162 C 212.007002 67.134655 209.729272 67.192002 206.242311 66.842708 C 205.799274 66.801001 205.460481 66.430854 205.460481 65.982506 L 205.460481 44.237645 C 205.460481 44.169872 205.502178 44.107311 205.564725 44.076031 C 205.700242 44.013471 205.856608 44.055178 206.033823 44.201152 C 206.179764 44.326272 206.409101 44.222005 206.409101 44.029111 L 206.409101 33.565928 C 206.409101 33.435595 206.513345 33.331328 206.638438 33.331328 L 216.473857 33.331328 C 216.692769 33.331328 216.85956 33.513795 216.854347 33.727542 C 216.729255 36.902469 216.802225 40.259863 217.07326 43.804937 C 217.078472 43.883138 217.141018 43.940484 217.213989 43.945698 C 219.225898 44.107311 221.576599 44.159445 224.271306 44.102098 C 225.808905 44.065605 226.986862 44.164658 228.35767 43.37223 C 228.461914 43.314883 228.529673 43.200189 228.529673 43.080283 L 228.566158 23.337346 C 228.566158 23.321706 228.566158 23.316493 228.560946 23.306066 C 228.342033 22.925492 227.987604 22.826438 227.502869 23.014119 C 227.403838 23.050612 227.299594 23.066252 227.190138 23.071465 C 223.776147 23.160092 220.846892 23.097532 218.407583 22.888998 C 218.011455 22.857718 217.703936 22.696105 217.469387 22.414584 C 217.302596 22.216477 217.213989 21.877609 217.203565 21.413622 C 217.141018 18.848656 217.125382 16.17421 217.141018 13.374644 C 217.141018 13.113977 216.922106 12.905443 216.661496 12.921083 C 213.336113 13.11919 209.995094 13.093124 206.628013 12.83767 C 206.148491 12.801176 205.736727 12.618709 205.397934 12.290268 C 205.324964 12.217282 205.22072 12.175575 205.116476 12.175575 " stroke="#4a3226" stroke-width="2" stroke-opacity="1" stroke-miterlimit="4"/></g><path stroke-linecap="butt" transform="matrix(0.749444, 0, 0, 0.749279, 568.897826, 263.201316)" fill="none" stroke-linejoin="miter" d="M 143.570832 119.408863 L 127.006465 119.408863 C 126.943918 119.408863 126.897008 119.455783 126.897008 119.518343 L 126.897008 140.449922 C 126.897008 140.533336 126.964767 140.595896 127.048162 140.595896 L 148.256599 140.595896 C 148.298297 140.595896 148.334782 140.585469 148.366055 140.564616 C 148.517209 140.460349 148.538058 140.283095 148.418177 140.043281 C 148.345206 139.892094 148.303509 139.699201 148.303509 139.459387 C 148.251387 136.55034 148.240962 133.719494 148.272236 130.972062 C 148.277448 130.654048 148.418177 130.518501 148.423389 130.278687 C 148.423389 130.17442 148.339994 130.091006 148.240962 130.091006 L 143.87314 130.091006 C 143.87314 130.091006 143.867928 130.091006 143.862715 130.091006 C 143.555196 130.075366 143.450952 129.898113 143.555196 129.564459 C 143.622954 129.350711 143.649015 129.131751 143.649015 128.918004 C 143.539559 125.633597 143.555196 122.510803 143.701137 119.549623 C 143.706349 119.471423 143.649015 119.408863 143.570832 119.408863 " stroke="#8e561a" stroke-width="2" stroke-opacity="1" stroke-miterlimit="4"/><path stroke-linecap="butt" transform="matrix(0.749444, 0, 0, 0.749279, 568.897826, 263.201316)" fill="none" stroke-linejoin="miter" d="M 175.688401 119.40365 C 175.620643 119.40365 175.563308 119.455783 175.563308 119.52877 L 175.563308 129.976313 C 175.563308 130.044086 175.505974 130.101433 175.438216 130.101433 L 166.765117 130.101433 C 166.697358 130.101433 166.640024 130.153566 166.640024 130.226553 L 166.640024 140.486416 C 166.640024 140.554189 166.697358 140.611536 166.765117 140.611536 L 193.894612 140.611536 C 193.967582 140.611536 194.019704 140.554189 194.019704 140.486416 L 194.019704 119.52877 C 194.019704 119.455783 193.967582 119.40365 193.894612 119.40365 L 175.688401 119.40365 " stroke="#8e561a" stroke-width="2" stroke-opacity="1" stroke-miterlimit="4"/><path stroke-linecap="butt" transform="matrix(0.749444, 0, 0, 0.749279, 568.897826, 263.201316)" fill="none" stroke-linejoin="miter" d="M 239.444017 172.611046 L 229.467868 172.590193 C 229.097802 172.584979 228.800707 172.88214 228.800707 173.252288 L 228.800707 182.641521 C 228.800707 182.818775 228.946649 182.964749 229.123863 182.964749 L 247.543774 182.964749 C 247.825233 182.964749 248.054569 183.194136 248.054569 183.470443 L 248.054569 192.974371 C 248.054569 193.125558 248.169238 193.240251 248.315179 193.240251 L 260.699364 193.240251 C 260.897427 193.240251 261.059005 193.078638 261.059005 192.88053 L 261.059005 173.726702 C 261.059005 173.476461 260.85573 173.283568 260.605544 173.293994 C 259.625651 173.330488 258.729152 173.346128 257.921262 173.325274 C 256.586939 173.299208 251.463347 173.231434 242.560912 173.127167 C 241.044162 173.106314 240.017359 172.9447 239.480502 172.626686 C 239.470078 172.616259 239.454441 172.611046 239.444017 172.611046 " stroke="#4a3226" stroke-width="2" stroke-opacity="1" stroke-miterlimit="4"/><path stroke-linecap="butt" transform="matrix(0.749444, 0, 0, 0.749279, 568.897826, 263.201316)" fill="none" stroke-linejoin="miter" d="M 315.04696 289.405608 L 315.062597 299.217123 C 315.062597 299.503857 315.297146 299.733244 315.583817 299.733244 L 368.200964 299.733244 C 368.31042 299.733244 368.393815 299.649831 368.393815 299.540351 L 368.393815 289.051101 C 368.393815 288.978114 368.451149 288.920767 368.518908 288.920767 L 379.506223 288.920767 C 379.605255 288.920767 379.683438 288.842567 379.683438 288.748727 L 379.683438 278.989346 C 379.683438 278.733892 379.480162 278.530571 379.224764 278.530571 L 357.463834 278.530571 C 357.4065 278.530571 357.354378 278.577491 357.354378 278.640052 L 357.354378 288.774794 C 357.354378 288.884274 357.270983 288.972901 357.156315 288.972901 L 326.175005 288.972901 C 326.086397 288.972901 326.008215 288.899914 326.008215 288.811287 L 326.008215 278.728678 C 326.008215 278.613985 325.914395 278.520145 325.799727 278.520145 L 315.057385 278.520145 C 314.963565 278.520145 314.885382 278.447158 314.885382 278.353318 L 314.885382 268.906737 C 314.885382 268.625216 314.656046 268.395829 314.374587 268.395829 L 303.694791 268.395829 C 303.580123 268.395829 303.486304 268.301989 303.481091 268.187295 L 303.439394 257.917006 " stroke="#8e561a" stroke-width="2" stroke-opacity="1" stroke-miterlimit="4"/><path stroke-linecap="butt" transform="matrix(0.749444, 0, 0, 0.749279, 568.897826, 263.201316)" fill="none" stroke-linejoin="miter" d="M 303.439394 257.917006 C 303.45503 257.724112 303.554062 257.625059 303.731277 257.630272 C 306.936779 257.661552 310.152706 257.666766 313.368632 257.645912 " stroke="#743e21" stroke-width="2" stroke-opacity="1" stroke-miterlimit="4"/><path stroke-linecap="butt" transform="matrix(0.749444, 0, 0, 0.749279, 568.897826, 263.201316)" fill="none" stroke-linejoin="miter" d="M 313.368632 257.645912 L 314.775926 257.677192 C 314.901019 257.677192 315.005263 257.786673 315.005263 257.911793 L 315.005263 267.723308 C 315.005263 267.926628 315.172053 268.098668 315.380541 268.098668 L 336.020848 268.030895 " stroke="#8e561a" stroke-width="2" stroke-opacity="1" stroke-miterlimit="4"/><path stroke-linecap="butt" transform="matrix(0.749444, 0, 0, 0.749279, 568.897826, 263.201316)" fill="none" stroke-linejoin="miter" d="M 336.020848 268.030895 C 336.151153 268.150802 336.218912 268.281136 336.234549 268.421896 " stroke="#743e21" stroke-width="2" stroke-opacity="1" stroke-miterlimit="4"/><path stroke-linecap="butt" transform="matrix(0.749444, 0, 0, 0.749279, 568.897826, 263.201316)" fill="none" stroke-linejoin="miter" d="M 336.234549 268.421896 L 336.2137 278.228197 C 336.2137 278.384598 336.338793 278.514931 336.495158 278.514931 L 346.367063 278.514931 C 346.45567 278.514931 346.533853 278.441944 346.533853 278.353318 L 346.533853 268.312416 C 346.533853 268.208149 346.612036 268.124735 346.721493 268.124735 L 368.211388 268.124735 C 368.362542 268.124735 368.482422 268.004828 368.47721 267.853641 L 368.362542 258.09426 " stroke="#8e561a" stroke-width="2" stroke-opacity="1" stroke-miterlimit="4"/><path stroke-linecap="butt" transform="matrix(0.749444, 0, 0, 0.749279, 568.897826, 263.201316)" fill="none" stroke-linejoin="miter" d="M 368.362542 258.09426 L 368.378179 257.880513 C 368.383391 257.750179 368.487635 257.645912 368.61794 257.645912 L 377.134672 257.651126 " stroke="#743e21" stroke-width="2" stroke-opacity="1" stroke-miterlimit="4"/><g clip-path="url(#3d75c59655)"><path stroke-linecap="butt" transform="matrix(0.749444, 0, 0, 0.749279, 568.897826, 263.201316)" fill="none" stroke-linejoin="miter" d="M 377.134672 257.651126 L 379.745984 257.661552 C 379.85544 257.661552 379.94926 257.755392 379.94926 257.864873 L 379.94926 277.915397 C 379.94926 278.275117 380.241143 278.572278 380.605997 278.572278 L 389.789891 278.572278 C 390.02444 278.572278 390.206867 278.384598 390.206867 278.149997 L 390.206867 225.849723 C 390.206867 225.693322 390.081774 225.562989 389.925408 225.562989 L 380.022231 225.562989 C 379.860652 225.562989 379.730347 225.703749 379.745984 225.865363 C 379.876289 227.173912 379.938835 228.623222 379.933623 230.223719 C 379.90235 239.649446 379.897138 245.259005 379.917987 247.036756 C 379.917987 247.109743 379.860652 247.167089 379.787682 247.167089 L 357.588927 247.167089 C 357.505532 247.167089 357.432561 247.094102 357.432561 247.010689 L 357.380439 235.770718 " stroke="#8e561a" stroke-width="2" stroke-opacity="1" stroke-miterlimit="4"/></g><path stroke-linecap="butt" transform="matrix(0.749444, 0, 0, 0.749279, 568.897826, 263.201316)" fill="none" stroke-linejoin="miter" d="M 357.380439 235.770718 C 357.416924 235.723798 357.437773 235.656024 357.458622 235.556971 " stroke="#743e21" stroke-width="2" stroke-opacity="1" stroke-miterlimit="4"/><path stroke-linecap="butt" transform="matrix(0.749444, 0, 0, 0.749279, 568.897826, 263.201316)" fill="none" stroke-linejoin="miter" d="M 357.458622 235.556971 C 357.71402 235.676877 357.912083 235.739438 358.052813 235.739438 C 361.524137 235.723798 364.948552 235.739438 368.320844 235.765504 C 368.378179 235.770718 368.419876 235.723798 368.419876 235.671664 L 368.419876 225.635976 C 368.419876 225.521282 368.503271 225.437868 368.61794 225.437868 L 379.417616 225.437868 C 379.568769 225.437868 379.693862 225.317961 379.693862 225.166774 C 379.673013 222.169101 379.678226 218.816921 379.709499 215.115446 C 379.714711 214.938192 379.600043 214.839139 379.370706 214.813072 " stroke="#8e561a" stroke-width="2" stroke-opacity="1" stroke-miterlimit="4"/><path stroke-linecap="butt" transform="matrix(0.749444, 0, 0, 0.749279, 568.897826, 263.201316)" fill="none" stroke-linejoin="miter" d="M 379.370706 214.813072 C 379.115308 214.745298 378.854698 214.714018 378.594088 214.714018 C 356.708065 214.734872 335.134775 214.734872 313.874216 214.708805 C 310.152706 214.703592 307.202601 214.729658 305.01869 214.781792 C 304.75808 214.787005 304.367165 214.833925 303.851157 214.922552 C 303.647882 214.953832 303.496728 215.131086 303.496728 215.334406 L 303.496728 225.286681 C 303.496728 225.380522 303.423757 225.458722 303.329938 225.458722 L 292.978511 225.458722 C 292.749174 225.458722 292.561535 225.641189 292.561535 225.875789 L 292.561535 277.93625 C 292.561535 278.254264 292.816933 278.504505 293.134877 278.504505 L 303.465455 278.504505 C 303.554062 278.504505 303.632245 278.577491 303.632245 278.671332 L 303.632245 288.48806 C 303.632245 288.696594 303.799035 288.863421 304.002311 288.858207 C 304.914446 288.852994 308.463953 288.837354 314.656046 288.8165 C 314.979202 288.8165 315.109507 289.014608 315.04696 289.405608 " stroke="#743e21" stroke-width="2" stroke-opacity="1" stroke-miterlimit="4"/><path stroke-linecap="butt" transform="matrix(0.749444, 0, 0, 0.749279, 568.897826, 263.201316)" fill="none" stroke-linejoin="miter" d="M 379.370706 214.813072 L 379.099671 214.828712 C 378.917244 214.839139 378.818213 215.042459 378.922457 215.188433 L 379.099671 215.443887 C 379.146581 215.506447 379.16743 215.579433 379.16743 215.65242 L 379.16743 224.395199 C 379.16743 224.64544 378.969366 224.84876 378.719181 224.84876 C 373.814502 224.900894 370.765366 224.911321 369.582196 224.895681 C 368.471998 224.874827 367.83611 225.156348 367.877807 226.350204 C 367.982051 229.452144 367.992476 232.23607 367.898656 234.712409 C 367.893444 234.926156 367.716229 235.098196 367.497317 235.08777 C 366.606031 235.066916 363.280648 235.035636 357.521168 235.009569 C 357.364802 235.009569 357.23971 235.139903 357.255346 235.29109 C 357.260558 235.410997 357.328317 235.499624 357.458622 235.556971 " stroke="#c66819" stroke-width="2" stroke-opacity="1" stroke-miterlimit="4"/><g clip-path="url(#14285c32c7)"><path stroke-linecap="butt" transform="matrix(0.749444, 0, 0, 0.749279, 568.897826, 263.201316)" fill="none" stroke-linejoin="miter" d="M 357.380439 235.770718 C 357.255346 235.546544 357.09898 235.656024 356.916553 236.083518 C 356.864431 236.192999 356.83837 236.318119 356.83837 236.438026 C 356.833158 238.085443 356.822734 241.19781 356.807097 245.775126 C 356.807097 247.047182 357.229285 247.782264 358.527123 247.808331 C 361.075888 247.860464 363.619441 247.850037 366.15257 247.792691 C 370.218085 247.69885 374.846517 247.881318 379.370706 247.829184 C 379.469738 247.829184 379.568769 247.813544 379.662589 247.777051 C 380.340175 247.505957 380.678968 247.073249 380.673755 246.478928 C 380.652907 240.650408 380.652907 236.318119 380.68418 233.476846 C 380.715453 231.198614 380.658119 228.982943 380.527814 226.835045 C 380.512177 226.563951 380.73109 226.324137 381.007336 226.324137 L 389.226974 226.324137 C 389.445886 226.324137 389.623101 226.501391 389.623101 226.720351 L 389.623101 277.357569 C 389.623101 277.659943 389.38334 277.899757 389.081032 277.899757 L 381.106368 277.899757 C 380.856182 277.899757 380.652907 277.696436 380.652907 277.446196 L 380.652907 258.104687 C 380.652907 258.01606 380.626846 257.93786 380.574724 257.864873 C 379.85544 256.843057 377.838319 257.119364 376.775031 257.280978 C 376.623877 257.301831 376.60824 257.515579 376.759394 257.552072 L 377.134672 257.651126 " stroke="#c66819" stroke-width="2" stroke-opacity="1" stroke-miterlimit="4"/></g><path stroke-linecap="butt" transform="matrix(0.749444, 0, 0, 0.749279, 568.897826, 263.201316)" fill="none" stroke-linejoin="miter" d="M 368.362542 258.09426 C 368.122781 257.93786 368.0029 257.93786 367.997688 258.099473 C 367.877807 261.613268 367.877807 264.616154 368.008112 267.10292 C 368.013325 267.311453 367.877807 267.49392 367.669319 267.540841 C 367.476468 267.587761 367.10119 267.608614 366.543485 267.592974 C 364.531576 267.561694 358.089298 267.572121 347.211439 267.629467 C 346.377487 267.634681 345.986572 268.025682 346.033482 268.797257 C 346.132514 270.460314 346.017846 272.764612 346.007421 275.913472 C 346.002209 276.507794 346.221121 277.096901 345.924026 277.602596 C 345.86148 277.696436 345.762448 277.758996 345.64778 277.758996 L 337.266564 277.758996 C 337.110198 277.758996 336.985105 277.633876 336.979893 277.472262 L 336.886073 269.083991 C 336.886073 269.026644 336.880861 268.969297 336.860012 268.91195 C 336.682798 268.338482 336.47431 268.171655 336.234549 268.421896 " stroke="#c66819" stroke-width="2" stroke-opacity="1" stroke-miterlimit="4"/><path stroke-linecap="butt" transform="matrix(0.749444, 0, 0, 0.749279, 568.897826, 263.201316)" fill="none" stroke-linejoin="miter" d="M 336.020848 268.030895 C 336.26061 267.785868 336.114668 267.655534 335.572599 267.655534 C 327.081927 267.561694 320.629225 267.540841 316.219705 267.603401 C 315.886124 267.608614 315.61509 267.32188 315.635939 266.988226 C 315.719334 265.429436 315.740183 262.796697 315.703697 259.095222 C 315.698485 258.433127 315.609878 257.92222 315.443088 257.557285 C 315.380541 257.421738 315.255448 257.322685 315.109507 257.291405 C 314.457982 257.150644 313.816882 257.119364 313.191418 257.192351 C 313.008991 257.213205 312.972505 257.458232 313.134083 257.536432 L 313.368632 257.645912 " stroke="#c66819" stroke-width="2" stroke-opacity="1" stroke-miterlimit="4"/><path stroke-linecap="butt" transform="matrix(0.749444, 0, 0, 0.749279, 568.897826, 263.201316)" fill="none" stroke-linejoin="miter" d="M 303.439394 257.917006 C 303.053691 257.927433 302.855627 258.380994 302.855627 259.282902 C 302.850415 262.019908 302.871264 264.772555 302.918174 267.540841 C 302.939023 268.58351 303.475879 269.104844 304.54438 269.099631 C 309.235359 269.063137 312.409588 269.042284 314.077491 269.037071 C 314.291192 269.037071 314.468406 269.209111 314.468406 269.428071 L 314.468406 278.165637 C 314.468406 278.514931 314.71338 278.817305 315.057385 278.895505 C 315.562968 278.999772 316.120673 279.057119 316.725288 279.057119 C 319.909942 279.051906 322.677619 279.046692 325.028321 279.036266 C 325.205536 279.036266 325.346265 279.177026 325.346265 279.35428 L 325.278507 288.40986 C 325.278507 288.44114 325.283719 288.47242 325.288931 288.5037 C 325.492207 289.379542 326.247976 289.822676 327.545813 289.822676 C 338.533128 289.864383 348.170484 289.833103 356.463092 289.734049 C 356.947827 289.728836 357.380439 289.562009 357.76093 289.233568 C 357.922508 289.092808 358.011115 288.889487 358.011115 288.680954 L 358.011115 279.239586 C 358.011115 279.140533 358.089298 279.062332 358.18833 279.062332 L 378.64621 279.062332 C 378.943305 279.062332 379.188279 279.30736 379.188279 279.60452 L 379.188279 288.227393 C 379.188279 288.357726 379.084035 288.461993 378.95373 288.461993 L 368.649213 288.461993 C 368.35733 288.461993 368.101932 288.670527 368.055022 288.962474 C 367.653683 291.089519 367.888232 293.717045 367.924717 298.560242 C 367.929929 298.826122 367.716229 299.03987 367.455619 299.03987 L 316.052915 299.03987 C 315.953883 299.03987 315.865276 298.977309 315.82879 298.888683 C 315.750607 298.690575 315.70891 298.466402 315.70891 298.231801 C 315.719334 293.414671 315.714122 290.526478 315.688061 289.562009 C 315.682849 289.421248 315.641151 289.290915 315.573393 289.181435 C 315.453512 288.988541 315.151204 289.056314 315.156417 289.280488 C 315.156417 289.311768 315.119931 289.353475 315.04696 289.405608 " stroke="#c66819" stroke-width="2" stroke-opacity="1" stroke-miterlimit="4"/><path stroke-linecap="butt" transform="matrix(0.749444, 0, 0, 0.749279, 568.897826, 263.201316)" fill="none" stroke-linejoin="miter" d="M 325.252446 224.937387 C 322.031307 224.796627 318.763258 224.749707 315.443088 224.807054 C 314.734229 224.81748 314.385011 225.198055 314.385011 225.933136 C 314.431921 233.059778 314.421497 239.680726 314.353738 245.79598 C 314.353738 246.004513 314.395436 246.213047 314.473619 246.411154 L 314.687319 246.932489 C 314.770714 247.146236 314.979202 247.286996 315.208539 247.286996 L 335.775875 247.214009 C 335.827997 247.214009 335.885331 247.203583 335.937453 247.182729 C 336.776617 246.843862 337.183169 246.160914 337.146683 245.133885 C 337.120622 244.158989 337.047652 241.208236 336.943408 236.265985 C 336.938195 236.146079 336.912134 236.026172 336.8548 235.927118 C 336.615039 235.442277 336.198063 235.18161 335.603872 235.155543 C 332.586009 235.014783 329.615056 235.030423 326.696225 235.202463 C 326.42519 235.218103 326.190641 234.999143 326.190641 234.728049 L 326.190641 225.917496 C 326.190641 225.390948 325.778878 224.958241 325.252446 224.937387 " stroke="#c66819" stroke-width="2" stroke-opacity="1" stroke-miterlimit="4"/><path stroke-linecap="butt" transform="matrix(0.749444, 0, 0, 0.749279, 568.897826, 263.201316)" fill="none" stroke-linejoin="miter" d="M 339.830966 257.661552 C 339.862239 257.651126 339.893512 257.645912 339.924785 257.630272 " stroke="#743e21" stroke-width="2" stroke-opacity="1" stroke-miterlimit="4"/><path stroke-linecap="butt" transform="matrix(0.749444, 0, 0, 0.749279, 568.897826, 263.201316)" fill="none" stroke-linejoin="miter" d="M 339.924785 257.630272 C 339.820541 257.92222 340.05509 258.06298 340.628432 258.06298 C 345.371533 258.026486 350.74531 258.036913 356.754975 258.099473 C 357.354378 258.104687 357.698383 257.875299 357.776566 257.416525 C 357.792203 257.327898 357.771354 257.244485 357.719232 257.166285 L 350.495124 246.828222 C 350.448215 246.755235 350.385668 246.692675 350.307485 246.640541 C 349.004436 245.754273 347.664901 245.472752 346.294092 245.78034 C 345.746811 245.90546 345.361109 246.166127 345.142196 246.572768 C 343.771388 249.080387 342.99477 250.50363 342.812343 250.832071 C 341.519718 253.188502 340.404308 255.404174 339.476536 257.473872 C 339.408778 257.625059 339.518234 257.797099 339.679812 257.807526 C 339.700661 257.807526 339.752783 257.760606 339.830966 257.661552 " stroke="#c66819" stroke-width="2" stroke-opacity="1" stroke-miterlimit="4"/><path stroke-linecap="butt" transform="matrix(0.749444, 0, 0, 0.749279, 568.897826, 263.201316)" fill="none" stroke-linejoin="miter" d="M 339.924785 257.630272 L 357.182376 257.645912 C 357.302256 257.645912 357.364802 257.515579 357.302256 257.421738 L 349.682021 246.661395 C 349.58299 246.520635 349.431836 246.421581 349.259833 246.379874 C 348.206969 246.145274 347.2375 246.098354 346.341002 246.228687 C 346.02827 246.270394 345.746811 246.463288 345.60087 246.744808 L 339.830966 257.661552 " stroke="#8e561a" stroke-width="2" stroke-opacity="1" stroke-miterlimit="4"/><path stroke-linecap="butt" transform="matrix(0.749444, 0, 0, 0.749279, 568.897826, 263.201316)" fill="none" stroke-linejoin="miter" d="M 325.669422 225.568202 C 325.669422 225.495215 325.612087 225.437868 325.539117 225.437868 L 314.994838 225.437868 C 314.921868 225.437868 314.864533 225.495215 314.864533 225.568202 L 314.864533 246.536275 C 314.864533 246.614475 314.921868 246.671822 314.994838 246.671822 L 336.192851 246.671822 C 336.265822 246.671822 336.323156 246.614475 336.323156 246.536275 L 336.323156 235.921905 C 336.323156 235.848918 336.265822 235.786358 336.192851 235.786358 L 325.804939 235.786358 C 325.731968 235.786358 325.669422 235.729011 325.669422 235.656024 L 325.669422 225.568202 " stroke="#8e561a" stroke-width="2" stroke-opacity="1" stroke-miterlimit="4"/><g clip-path="url(#99efede69c)"><path fill="#3c2c22" d="M 763.523438 495.996094 C 763.554688 496.1875 763.480469 496.339844 763.300781 496.449219 C 763.230469 496.492188 763.15625 496.519531 763.074219 496.523438 C 761.070312 496.632812 759.117188 496.628906 757.21875 496.511719 C 756.914062 496.492188 756.597656 496.332031 756.269531 496.035156 C 756.191406 495.960938 756.144531 495.859375 756.144531 495.75 L 756.144531 480.671875 C 756.144531 480.441406 755.964844 480.257812 755.738281 480.25 C 752.667969 480.179688 750.445312 480.109375 749.0625 480.046875 C 748.472656 480.023438 748.167969 479.722656 748.160156 479.144531 C 748.097656 475.550781 748.207031 472.074219 748.214844 469.027344 C 748.21875 466.546875 748.179688 462.519531 748.097656 456.9375 C 748.09375 456.585938 747.785156 456.3125 747.4375 456.347656 C 745.65625 456.527344 743.636719 456.492188 741.375 456.25 C 741.273438 456.238281 741.175781 456.195312 741.097656 456.128906 C 740.679688 455.742188 740.464844 455.253906 740.464844 454.664062 C 740.464844 453.4375 740.445312 452.550781 740.402344 451.992188 C 740.320312 450.933594 740.28125 450.039062 740.285156 449.308594 C 740.304688 445.574219 740.371094 442.359375 740.492188 439.660156 C 740.496094 439.574219 740.425781 439.5 740.339844 439.5 L 731.679688 439.5 C 731.535156 439.5 731.417969 439.617188 731.417969 439.761719 L 731.417969 447.796875 C 731.417969 447.910156 731.332031 447.996094 731.21875 447.996094 L 724.121094 447.996094 C 724.027344 447.996094 723.949219 448.074219 723.949219 448.167969 L 723.949219 455.976562 C 723.949219 456.101562 724.050781 456.203125 724.175781 456.203125 L 731.101562 456.203125 C 731.257812 456.203125 731.382812 456.328125 731.382812 456.488281 L 731.382812 479.503906 C 731.382812 479.636719 731.488281 479.738281 731.613281 479.738281 L 739.957031 479.738281 C 740.128906 479.738281 740.269531 479.878906 740.269531 480.046875 L 740.269531 487.28125 C 740.269531 487.570312 740.5 487.800781 740.785156 487.800781 L 747.683594 487.800781 C 747.757812 487.800781 747.820312 487.863281 747.820312 487.9375 L 747.820312 503.527344 C 747.820312 503.695312 747.957031 503.828125 748.121094 503.828125 L 755.839844 503.828125 C 756.0625 503.828125 756.242188 504.015625 756.230469 504.242188 C 756.128906 506.257812 756.171875 508.351562 756.351562 510.535156 C 756.390625 510.972656 756.75 511.316406 757.191406 511.328125 L 764.039062 511.570312 C 764.09375 511.574219 764.132812 511.53125 764.132812 511.480469 C 764.066406 510.472656 764.074219 508.214844 764.15625 504.71875 C 764.214844 502.339844 764.167969 499.441406 764.023438 496.027344 C 764.109375 495.96875 764.238281 495.96875 764.414062 496.03125 C 764.496094 496.0625 764.554688 496.136719 764.554688 496.222656 L 764.554688 511.34375 C 764.554688 511.488281 764.667969 511.605469 764.8125 511.605469 L 771.5625 511.605469 C 771.6875 511.605469 771.789062 511.707031 771.789062 511.832031 L 771.789062 519.535156 C 771.789062 519.65625 771.6875 519.757812 771.566406 519.757812 L 756.457031 519.757812 C 756.339844 519.757812 756.242188 519.660156 756.242188 519.542969 L 756.242188 511.46875 C 756.242188 511.34375 756.140625 511.242188 756.019531 511.242188 L 748.675781 511.242188 C 748.597656 511.242188 748.535156 511.304688 748.535156 511.386719 L 748.535156 528.074219 C 748.535156 528.195312 748.632812 528.292969 748.753906 528.292969 L 756.460938 528.292969 C 756.535156 528.292969 756.59375 528.351562 756.59375 528.425781 L 756.59375 543.375 C 756.59375 543.464844 756.667969 543.539062 756.761719 543.539062 L 764.347656 543.539062 C 764.433594 543.539062 764.503906 543.609375 764.503906 543.695312 L 764.503906 552.019531 C 764.503906 552.089844 764.554688 552.140625 764.625 552.140625 L 771.484375 552.140625 C 771.609375 552.140625 771.710938 552.242188 771.710938 552.367188 L 771.710938 568.164062 C 771.710938 568.300781 771.601562 568.410156 771.464844 568.410156 L 740.609375 568.410156 C 740.523438 568.410156 740.457031 568.339844 740.457031 568.253906 L 740.457031 560.199219 C 740.457031 560.035156 740.589844 559.902344 740.753906 559.902344 L 748.605469 559.902344 C 748.710938 559.902344 748.796875 559.816406 748.796875 559.710938 L 748.796875 552.195312 C 748.796875 552.109375 748.726562 552.042969 748.640625 552.042969 L 740.75 552.042969 C 740.582031 552.042969 740.449219 551.910156 740.449219 551.746094 L 740.449219 536.289062 C 740.449219 536.179688 740.359375 536.085938 740.246094 536.085938 L 732.285156 536.085938 C 732.195312 536.085938 732.121094 536.011719 732.121094 535.921875 L 732.121094 528.429688 C 732.121094 528.335938 732.042969 528.261719 731.949219 528.261719 L 724.125 528.261719 C 724.054688 528.261719 724 528.203125 724 528.136719 L 724 519.992188 C 724 519.863281 723.898438 519.761719 723.765625 519.761719 L 716.777344 519.761719 C 716.691406 519.761719 716.617188 519.835938 716.617188 519.921875 L 716.617188 535.945312 C 716.617188 536.019531 716.554688 536.082031 716.480469 536.082031 L 708.496094 536.082031 C 708.46875 536.082031 708.445312 536.058594 708.445312 536.03125 L 708.445312 528.550781 C 708.445312 528.390625 708.316406 528.261719 708.152344 528.261719 L 701.019531 528.261719 C 700.949219 528.261719 700.890625 528.199219 700.890625 528.128906 L 700.890625 511.484375 C 700.890625 511.347656 700.78125 511.238281 700.648438 511.238281 L 692.675781 511.238281 C 692.550781 511.238281 692.445312 511.339844 692.445312 511.472656 L 692.445312 528.152344 C 692.445312 528.230469 692.382812 528.292969 692.304688 528.292969 L 684.765625 528.292969 C 684.664062 528.292969 684.578125 528.207031 684.578125 528.105469 L 684.578125 519.972656 C 684.578125 519.855469 684.480469 519.761719 684.367188 519.761719 L 677.210938 519.761719 C 677.136719 519.761719 677.074219 519.699219 677.074219 519.621094 L 677.074219 504.003906 C 677.074219 503.886719 676.976562 503.789062 676.859375 503.789062 L 669.246094 503.789062 C 669.109375 503.789062 669.007812 503.910156 669.027344 504.042969 L 669.128906 504.695312 C 669.132812 504.71875 669.132812 504.742188 669.136719 504.765625 L 669.277344 511.019531 C 669.28125 511.144531 669.183594 511.242188 669.058594 511.242188 L 661.554688 511.242188 C 661.453125 511.242188 661.371094 511.328125 661.371094 511.429688 L 661.371094 528.09375 C 661.371094 528.210938 661.464844 528.308594 661.582031 528.308594 L 669.464844 528.308594 C 669.5625 528.308594 669.640625 528.386719 669.640625 528.484375 L 669.640625 551.929688 C 669.640625 551.996094 669.695312 552.046875 669.757812 552.046875 L 677.691406 552.046875 C 677.734375 552.046875 677.769531 552.082031 677.769531 552.125 L 677.769531 568.125 C 677.769531 568.28125 677.640625 568.410156 677.484375 568.410156 L 621.488281 568.410156 C 621.417969 568.410156 621.367188 568.355469 621.367188 568.289062 L 621.367188 560.152344 C 621.367188 560.015625 621.476562 559.902344 621.617188 559.902344 L 629.199219 559.902344 C 629.402344 559.902344 629.566406 559.738281 629.566406 559.539062 L 629.566406 552.265625 C 629.566406 552.148438 629.664062 552.050781 629.78125 552.050781 L 653.242188 552.050781 C 653.320312 552.050781 653.382812 551.988281 653.382812 551.910156 L 653.382812 544.160156 C 653.382812 543.992188 653.25 543.859375 653.089844 543.859375 L 645.691406 543.859375 C 645.597656 543.859375 645.523438 543.785156 645.523438 543.691406 L 645.523438 519.941406 C 645.523438 519.84375 645.445312 519.765625 645.347656 519.765625 L 637.609375 519.765625 C 637.511719 519.765625 637.429688 519.6875 637.429688 519.589844 L 637.429688 496.140625 C 637.429688 496.054688 637.5 495.988281 637.582031 495.988281 L 645.316406 495.988281 C 645.421875 495.988281 645.511719 495.898438 645.511719 495.792969 L 645.511719 488.433594 C 645.511719 488.300781 645.621094 488.1875 645.757812 488.1875 L 653.1875 488.1875 C 653.316406 488.1875 653.421875 488.085938 653.421875 487.953125 L 653.421875 479.960938 C 653.421875 479.800781 653.546875 479.671875 653.707031 479.671875 L 661.132812 479.671875 C 661.171875 479.671875 661.207031 479.65625 661.234375 479.632812 C 661.367188 479.511719 661.359375 479.324219 661.203125 479.082031 C 661.164062 479.019531 661.144531 478.949219 661.144531 478.875 L 661.144531 472.253906 C 661.144531 472.078125 661.28125 471.941406 661.457031 471.941406 L 668.9375 471.941406 C 669.046875 471.941406 669.132812 471.851562 669.132812 471.742188 L 669.132812 456.457031 C 669.132812 456.242188 669.308594 456.070312 669.523438 456.070312 L 676.773438 456.070312 C 676.964844 456.070312 677.121094 455.914062 677.121094 455.71875 L 677.121094 447.878906 C 677.121094 447.789062 677.042969 447.710938 676.953125 447.710938 L 669.386719 447.710938 C 669.242188 447.710938 669.121094 447.59375 669.121094 447.445312 L 669.121094 432.359375 C 669.121094 432.238281 669.023438 432.136719 668.902344 432.136719 L 661.601562 432.136719 C 661.511719 432.136719 661.4375 432.210938 661.4375 432.300781 L 661.4375 440.039062 C 661.4375 440.167969 661.335938 440.269531 661.207031 440.269531 L 653.460938 440.269531 C 653.402344 440.269531 653.351562 440.316406 653.351562 440.375 L 653.351562 447.597656 C 653.351562 447.65625 653.300781 447.707031 653.242188 447.707031 L 646.046875 447.707031 C 645.980469 447.707031 645.929688 447.753906 645.929688 447.820312 L 645.929688 456.039062 C 645.929688 456.140625 645.851562 456.21875 645.75 456.21875 L 637.566406 456.21875 C 637.480469 456.21875 637.414062 456.148438 637.414062 456.0625 L 637.414062 440.484375 C 637.414062 440.363281 637.3125 440.261719 637.1875 440.261719 L 629.355469 440.261719 C 629.285156 440.261719 629.226562 440.316406 629.226562 440.386719 L 629.226562 456 C 629.226562 456.117188 629.128906 456.21875 629.007812 456.21875 L 620.78125 456.21875 C 620.675781 456.21875 620.589844 456.132812 620.589844 456.027344 L 620.589844 432.394531 C 620.589844 432.246094 620.46875 432.125 620.324219 432.125 L 611.628906 432.125 C 611.542969 432.125 611.46875 432.195312 611.46875 432.285156 L 611.46875 440.050781 C 611.46875 440.171875 611.371094 440.269531 611.253906 440.269531 L 602.835938 440.269531 C 602.714844 440.269531 602.613281 440.167969 602.613281 440.042969 L 602.613281 400.320312 C 602.613281 400.238281 602.546875 400.171875 602.46875 400.171875 L 595.253906 400.171875 C 595.195312 400.171875 595.148438 400.125 595.148438 400.070312 L 595.148438 392.542969 C 595.148438 392.46875 595.089844 392.410156 595.015625 392.410156 L 586.542969 392.410156 C 586.457031 392.410156 586.386719 392.339844 586.386719 392.253906 L 586.386719 384.710938 C 586.386719 384.515625 586.222656 384.355469 586.03125 384.363281 C 583.855469 384.421875 581.585938 384.429688 579.21875 384.378906 C 579.101562 384.375 578.875 384.335938 578.535156 384.253906 C 578.328125 384.207031 578.128906 384.363281 578.128906 384.578125 L 578.128906 392.226562 C 578.128906 392.328125 578.046875 392.40625 577.945312 392.40625 L 570.121094 392.40625 C 570.050781 392.40625 569.996094 392.351562 569.996094 392.28125 L 569.996094 376.570312 C 569.996094 376.46875 570.078125 376.386719 570.175781 376.386719 L 577.585938 376.386719 C 577.683594 376.386719 577.761719 376.3125 577.761719 376.214844 L 577.761719 360.644531 C 577.761719 360.527344 577.859375 360.429688 577.976562 360.429688 L 585.929688 360.429688 C 586.164062 360.429688 586.351562 360.242188 586.351562 360.007812 L 586.351562 352.746094 C 586.351562 352.621094 586.453125 352.519531 586.578125 352.519531 L 602.523438 352.519531 C 602.652344 352.519531 602.75 352.621094 602.75 352.746094 L 602.75 360.207031 C 602.75 360.328125 602.851562 360.425781 602.976562 360.425781 L 611.320312 360.425781 C 611.402344 360.425781 611.46875 360.496094 611.46875 360.578125 L 611.46875 376.230469 C 611.46875 376.320312 611.539062 376.390625 611.625 376.390625 L 620.292969 376.390625 C 620.4375 376.390625 620.554688 376.273438 620.554688 376.128906 L 620.554688 368.695312 C 620.554688 368.613281 620.625 368.546875 620.707031 368.546875 L 629.027344 368.546875 C 629.140625 368.546875 629.226562 368.632812 629.226562 368.746094 L 629.226562 384.28125 C 629.226562 384.367188 629.15625 384.433594 629.070312 384.433594 L 621.226562 384.433594 C 621.152344 384.433594 621.089844 384.496094 621.089844 384.570312 L 621.089844 399.917969 C 621.089844 400.058594 621.203125 400.167969 621.34375 400.167969 L 629.273438 400.167969 C 629.3125 400.167969 629.34375 400.203125 629.34375 400.238281 L 629.34375 407.914062 C 629.34375 407.953125 629.375 407.980469 629.414062 407.980469 L 637.546875 407.980469 C 637.644531 407.980469 637.726562 408.0625 637.726562 408.167969 L 637.726562 415.832031 C 637.726562 415.910156 637.789062 415.972656 637.871094 415.972656 L 645.175781 415.972656 C 645.363281 415.972656 645.511719 415.824219 645.511719 415.636719 L 645.511719 408.171875 C 645.511719 408.066406 645.597656 407.980469 645.703125 407.980469 L 653.097656 407.980469 C 653.28125 407.980469 653.433594 407.832031 653.433594 407.640625 L 653.433594 400.351562 C 653.433594 400.25 653.515625 400.164062 653.617188 400.164062 L 661.03125 400.164062 C 661.097656 400.164062 661.148438 400.117188 661.148438 400.050781 L 661.148438 392.707031 C 661.148438 392.574219 661.253906 392.464844 661.386719 392.464844 L 668.886719 392.464844 C 669.050781 392.464844 669.1875 392.328125 669.1875 392.160156 L 669.1875 384.554688 C 669.1875 384.492188 669.136719 384.4375 669.074219 384.4375 L 661.25 384.4375 C 661.1875 384.4375 661.136719 384.386719 661.136719 384.328125 L 661.136719 376.5625 C 661.136719 376.46875 661.0625 376.390625 660.964844 376.390625 L 653.640625 376.390625 C 653.53125 376.390625 653.445312 376.300781 653.445312 376.195312 L 653.445312 352.84375 C 653.445312 352.742188 653.363281 352.660156 653.257812 352.660156 L 629.476562 352.660156 C 629.402344 352.660156 629.339844 352.597656 629.339844 352.519531 L 629.339844 344.667969 C 629.339844 344.542969 629.238281 344.441406 629.113281 344.441406 L 620.804688 344.441406 C 620.703125 344.441406 620.621094 344.355469 620.621094 344.257812 L 620.621094 336.324219 C 620.621094 336.199219 620.71875 336.101562 620.847656 336.101562 L 644.910156 336.101562 C 645.132812 336.101562 645.308594 335.917969 645.308594 335.699219 L 645.308594 328.328125 C 645.308594 328.230469 645.390625 328.15625 645.484375 328.15625 L 653.195312 328.15625 C 653.402344 328.15625 653.558594 327.960938 653.507812 327.757812 L 653.4375 327.445312 C 653.429688 327.421875 653.425781 327.398438 653.425781 327.375 L 653.425781 313.132812 C 653.425781 313.003906 653.53125 312.902344 653.660156 312.902344 L 660.992188 312.902344 C 661.074219 312.902344 661.140625 312.835938 661.140625 312.75 L 661.140625 296.347656 C 661.140625 296.25 661.21875 296.171875 661.316406 296.171875 L 668.855469 296.171875 C 668.988281 296.171875 669.09375 296.0625 669.09375 295.929688 L 669.09375 288.21875 C 669.09375 288.128906 669.164062 288.058594 669.253906 288.058594 L 676.710938 288.058594 C 676.953125 288.058594 677.132812 287.835938 677.082031 287.605469 C 676.992188 287.183594 676.953125 286.914062 676.953125 286.785156 C 677.011719 285.101562 676.988281 282.910156 676.886719 280.21875 C 676.878906 280.035156 677.03125 279.882812 677.214844 279.894531 C 679.730469 280.050781 682.3125 280.054688 684.953125 279.902344 C 685.113281 279.894531 685.238281 279.761719 685.238281 279.597656 L 685.238281 272.648438 C 685.238281 272.53125 685.335938 272.433594 685.457031 272.433594 L 693.230469 272.433594 C 693.347656 272.433594 693.441406 272.339844 693.441406 272.226562 L 693.441406 264.125 C 693.441406 264.007812 693.535156 263.914062 693.652344 263.914062 L 723.113281 263.914062 C 723.195312 263.914062 723.261719 263.984375 723.261719 264.066406 L 723.261719 272.34375 C 723.261719 272.394531 723.304688 272.433594 723.355469 272.433594 L 731.96875 272.433594 C 732.050781 272.433594 732.113281 272.5 732.113281 272.582031 L 732.113281 279.707031 C 732.113281 279.863281 732.242188 279.988281 732.398438 279.988281 L 740.472656 279.988281 C 740.566406 279.988281 740.640625 280.066406 740.640625 280.160156 L 740.640625 295.984375 C 740.640625 296.082031 740.726562 296.164062 740.824219 296.164062 L 748.242188 296.164062 C 748.339844 296.164062 748.421875 296.246094 748.421875 296.34375 L 748.421875 304.535156 C 748.421875 304.632812 748.496094 304.710938 748.59375 304.710938 L 755.835938 304.710938 C 756.0625 304.710938 756.242188 304.53125 756.242188 304.304688 L 756.242188 288.152344 C 756.242188 288.097656 756.289062 288.054688 756.34375 288.054688 L 764.226562 288.054688 C 764.371094 288.054688 764.488281 288.171875 764.488281 288.316406 L 764.488281 304.527344 C 764.488281 304.65625 764.382812 304.761719 764.253906 304.761719 L 756.882812 304.761719 C 756.722656 304.761719 756.59375 304.890625 756.59375 305.050781 L 756.59375 312.667969 C 756.59375 312.796875 756.492188 312.898438 756.363281 312.898438 L 740.484375 312.898438 C 740.378906 312.898438 740.292969 312.808594 740.292969 312.703125 L 740.292969 304.941406 C 740.292969 304.855469 740.222656 304.785156 740.132812 304.785156 L 731.875 304.785156 C 731.722656 304.785156 731.597656 304.664062 731.597656 304.507812 L 731.597656 296.730469 C 731.597656 296.640625 731.523438 296.570312 731.4375 296.570312 L 723.730469 296.570312 C 723.644531 296.570312 723.578125 296.636719 723.578125 296.722656 L 723.578125 312.769531 C 723.578125 312.839844 723.632812 312.894531 723.703125 312.894531 L 731.96875 312.894531 C 732.066406 312.894531 732.140625 312.972656 732.140625 313.070312 L 732.140625 328.035156 C 732.140625 328.101562 732.195312 328.15625 732.261719 328.15625 L 748.304688 328.15625 C 748.375 328.15625 748.429688 328.207031 748.429688 328.277344 L 748.429688 336.054688 C 748.429688 336.089844 748.457031 336.113281 748.484375 336.113281 L 771.640625 336.113281 C 771.734375 336.113281 771.808594 336.191406 771.808594 336.285156 L 771.808594 344.21875 C 771.808594 344.335938 771.714844 344.433594 771.597656 344.433594 L 764.574219 344.433594 C 764.492188 344.433594 764.425781 344.5 764.425781 344.582031 L 764.425781 352.460938 C 764.425781 352.5625 764.34375 352.648438 764.242188 352.648438 L 740.992188 352.660156 C 740.976562 352.660156 740.957031 352.660156 740.9375 352.664062 C 740.695312 352.71875 740.621094 352.894531 740.714844 353.1875 C 740.777344 353.382812 740.804688 353.558594 740.796875 353.710938 C 740.789062 353.921875 740.785156 356.121094 740.789062 360.300781 C 740.789062 360.371094 740.847656 360.425781 740.917969 360.425781 L 748.28125 360.425781 C 748.375 360.425781 748.449219 360.503906 748.449219 360.59375 L 748.449219 368.4375 C 748.449219 368.523438 748.378906 368.59375 748.292969 368.59375 L 740.929688 368.59375 C 740.878906 368.59375 740.835938 368.636719 740.835938 368.6875 L 740.835938 376.164062 C 740.835938 376.292969 740.734375 376.394531 740.605469 376.394531 L 732.265625 376.394531 C 732.179688 376.394531 732.113281 376.464844 732.113281 376.546875 L 732.113281 384.207031 C 732.113281 384.308594 732.199219 384.394531 732.300781 384.394531 L 748.304688 384.394531 C 748.425781 384.394531 748.519531 384.492188 748.519531 384.609375 L 748.519531 392.199219 C 748.519531 392.328125 748.625 392.429688 748.753906 392.429688 L 771.351562 392.429688 C 771.457031 392.429688 771.542969 392.34375 771.542969 392.238281 L 771.542969 384.644531 C 771.542969 384.5 771.660156 384.382812 771.804688 384.382812 L 779.78125 384.382812 C 779.933594 384.382812 780.058594 384.253906 780.058594 384.097656 L 780.058594 376.765625 C 780.058594 376.554688 780.226562 376.386719 780.4375 376.386719 L 787.976562 376.386719 C 788.082031 376.386719 788.171875 376.296875 788.171875 376.191406 L 788.171875 368.753906 C 788.171875 368.648438 788.261719 368.558594 788.367188 368.558594 L 795.859375 368.558594 C 796.078125 368.558594 796.253906 368.382812 796.253906 368.164062 L 796.253906 360.488281 C 796.253906 360.457031 796.28125 360.429688 796.316406 360.429688 L 828.328125 360.429688 C 828.410156 360.429688 828.472656 360.496094 828.460938 360.578125 C 828.425781 360.878906 828.289062 361.074219 828.292969 361.355469 C 828.3125 362.285156 828.300781 364.621094 828.261719 368.375 C 828.257812 368.484375 828.347656 368.570312 828.457031 368.570312 L 836.621094 368.570312 C 836.6875 368.570312 836.734375 368.625 836.734375 368.691406 L 836.734375 384.089844 C 836.734375 384.253906 836.867188 384.382812 837.03125 384.382812 L 845.175781 384.382812 C 845.273438 384.382812 845.351562 384.460938 845.351562 384.558594 L 845.351562 415.546875 C 845.351562 415.6875 845.464844 415.800781 845.601562 415.800781 L 853.335938 415.800781 C 853.410156 415.800781 853.472656 415.859375 853.472656 415.9375 L 853.472656 423.804688 C 853.472656 423.941406 853.585938 424.054688 853.726562 424.054688 L 861.203125 424.054688 C 861.414062 424.054688 861.582031 424.222656 861.582031 424.433594 L 861.582031 431.9375 C 861.582031 432.027344 861.65625 432.101562 861.746094 432.101562 L 869.640625 432.101562 C 869.710938 432.101562 869.769531 432.160156 869.769531 432.234375 L 869.769531 471.921875 C 869.769531 472.066406 869.65625 472.1875 869.511719 472.1875 L 861.804688 472.1875 C 861.652344 472.1875 861.53125 472.304688 861.53125 472.457031 L 861.53125 479.777344 C 861.53125 479.902344 861.429688 480.003906 861.300781 480.003906 L 853.609375 480.003906 C 853.535156 480.003906 853.472656 480.066406 853.472656 480.140625 L 853.472656 487.625 C 853.472656 487.722656 853.394531 487.796875 853.300781 487.796875 L 845.289062 487.796875 C 845.15625 487.796875 845.046875 487.90625 845.046875 488.039062 L 845.046875 495.769531 C 845.046875 495.886719 844.953125 495.984375 844.835938 495.984375 L 805.03125 495.984375 C 804.957031 495.984375 804.898438 495.921875 804.898438 495.847656 L 804.898438 487.980469 C 804.898438 487.878906 804.8125 487.792969 804.703125 487.792969 L 796.5 487.792969 C 796.40625 487.792969 796.332031 487.714844 796.332031 487.617188 L 796.332031 480.183594 C 796.332031 480.085938 796.25 480.007812 796.152344 480.007812 L 788.414062 480.007812 C 788.28125 480.007812 788.175781 479.902344 788.175781 479.769531 L 788.175781 472.378906 C 788.175781 472.277344 788.09375 472.195312 787.996094 472.195312 L 780.367188 472.195312 C 780.234375 472.195312 780.125 472.085938 780.125 471.953125 L 780.125 432.3125 C 780.125 432.199219 780.035156 432.109375 779.921875 432.109375 L 771.675781 432.109375 C 771.589844 432.109375 771.519531 432.039062 771.519531 431.953125 L 771.519531 424.8125 C 771.519531 424.707031 771.433594 424.617188 771.324219 424.617188 L 764.824219 424.617188 C 764.753906 424.617188 764.699219 424.671875 764.699219 424.742188 L 764.699219 439.988281 C 764.699219 440.140625 764.574219 440.265625 764.421875 440.265625 L 756.488281 440.265625 C 756.355469 440.265625 756.25 440.160156 756.25 440.027344 L 756.25 432.3125 C 756.25 432.214844 756.171875 432.140625 756.078125 432.140625 L 748.796875 432.140625 C 748.75 432.140625 748.714844 432.101562 748.714844 432.054688 L 748.714844 424.898438 C 748.714844 424.753906 748.59375 424.632812 748.449219 424.632812 L 741.203125 424.632812 C 741.070312 424.632812 740.960938 424.742188 740.960938 424.875 L 740.960938 455.710938 C 740.960938 455.832031 741.058594 455.925781 741.175781 455.925781 L 748.460938 455.925781 C 748.578125 455.925781 748.667969 456.015625 748.667969 456.128906 L 748.667969 479.492188 C 748.667969 479.589844 748.746094 479.664062 748.835938 479.664062 L 756.433594 479.664062 C 756.523438 479.664062 756.59375 479.734375 756.59375 479.824219 L 756.59375 495.8125 C 756.59375 495.921875 756.679688 496.003906 756.785156 496.003906 Z M 722.621094 272.324219 C 715.335938 272.320312 710.523438 272.320312 708.183594 272.324219 C 707.578125 272.324219 707.28125 272.597656 707.289062 273.140625 C 707.335938 276.839844 707.34375 278.921875 707.316406 279.378906 C 707.285156 279.984375 706.984375 280.285156 706.414062 280.277344 C 703.695312 280.238281 702.015625 280.230469 701.371094 280.25 C 700.820312 280.265625 700.539062 280.542969 700.527344 281.078125 C 700.515625 281.648438 700.507812 283.511719 700.507812 286.671875 C 700.507812 287.5625 700.597656 288.136719 701.605469 288.132812 C 704.472656 288.117188 706.09375 288.109375 706.460938 288.105469 C 707.035156 288.101562 707.324219 288.402344 707.324219 289.019531 C 707.324219 297.292969 707.324219 302.289062 707.320312 304.011719 C 707.316406 304.695312 707.019531 305.039062 706.421875 305.042969 C 704.675781 305.054688 703 305.074219 701.394531 305.105469 C 700.828125 305.117188 700.546875 305.355469 700.542969 305.820312 C 700.527344 307.886719 700.515625 309.957031 700.515625 312.027344 C 700.515625 312.625 700.816406 312.921875 701.414062 312.921875 C 707.339844 312.917969 711.929688 312.933594 715.1875 312.976562 C 715.78125 312.988281 716.082031 313.261719 716.082031 313.804688 C 716.082031 315.261719 716.082031 317.035156 716.082031 319.121094 C 716.082031 319.988281 715.929688 320.453125 715 320.453125 C 700.136719 320.5 690.585938 320.507812 686.347656 320.476562 C 685.519531 320.472656 685.351562 320.878906 685.359375 321.644531 C 685.394531 324.488281 685.382812 326.371094 685.332031 327.296875 C 685.300781 327.84375 685.007812 328.109375 684.457031 328.097656 C 683.359375 328.078125 681.292969 328.070312 678.257812 328.078125 C 676.976562 328.082031 677.121094 328.902344 677.121094 329.84375 C 677.117188 330.660156 677.125 332.308594 677.140625 334.789062 C 677.144531 335.519531 677.328125 336.039062 678.109375 336.039062 C 707.300781 336.039062 722.269531 336.027344 723.019531 336.003906 C 723.609375 335.984375 723.910156 336.292969 723.910156 336.921875 C 723.914062 338.660156 723.917969 340.816406 723.921875 343.382812 C 723.921875 344.117188 724.125 344.558594 724.910156 344.558594 C 734.6875 344.554688 743.746094 344.574219 752.082031 344.613281 C 754.773438 344.628906 758.289062 344.621094 762.625 344.59375 C 763.128906 344.589844 763.554688 344.53125 763.90625 344.414062 C 763.980469 344.386719 764.050781 344.347656 764.109375 344.296875 C 764.386719 344.058594 764.730469 343.941406 765.132812 343.949219 C 767.296875 343.972656 769.203125 343.960938 770.84375 343.921875 C 771.066406 343.914062 771.242188 343.734375 771.242188 343.515625 L 771.242188 337.042969 C 771.242188 336.785156 771.035156 336.578125 770.773438 336.578125 L 748.742188 336.578125 C 748.425781 336.578125 748.160156 336.339844 748.128906 336.023438 C 747.9375 334.117188 747.871094 332.105469 747.929688 329.984375 C 747.9375 329.683594 748.097656 329.214844 747.882812 328.902344 C 747.816406 328.804688 747.707031 328.746094 747.585938 328.746094 C 743.410156 328.789062 738.863281 328.769531 733.949219 328.683594 C 733.585938 328.671875 732.980469 328.609375 732.136719 328.484375 C 731.808594 328.4375 731.5625 328.15625 731.5625 327.820312 L 731.5625 313.980469 C 731.5625 313.699219 731.335938 313.472656 731.054688 313.476562 C 727.785156 313.503906 726.078125 313.546875 723.464844 313.285156 C 723.132812 313.253906 722.878906 312.976562 722.878906 312.640625 L 722.878906 296.347656 C 722.878906 296.296875 722.910156 296.25 722.957031 296.226562 C 723.058594 296.179688 723.175781 296.210938 723.308594 296.320312 C 723.417969 296.414062 723.589844 296.335938 723.589844 296.191406 L 723.589844 288.351562 C 723.589844 288.253906 723.667969 288.175781 723.761719 288.175781 L 731.132812 288.175781 C 731.296875 288.175781 731.421875 288.3125 731.417969 288.472656 C 731.324219 290.851562 731.378906 293.367188 731.582031 296.023438 C 731.585938 296.082031 731.632812 296.125 731.6875 296.128906 C 733.195312 296.25 734.957031 296.289062 736.976562 296.246094 C 738.128906 296.21875 739.011719 296.292969 740.039062 295.699219 C 740.117188 295.65625 740.167969 295.570312 740.167969 295.480469 L 740.195312 280.6875 C 740.195312 280.675781 740.195312 280.671875 740.191406 280.664062 C 740.027344 280.378906 739.761719 280.304688 739.398438 280.445312 C 739.324219 280.472656 739.246094 280.484375 739.164062 280.488281 C 736.605469 280.554688 734.410156 280.507812 732.582031 280.351562 C 732.285156 280.328125 732.054688 280.207031 731.878906 279.996094 C 731.753906 279.847656 731.6875 279.59375 731.679688 279.246094 C 731.632812 277.324219 731.621094 275.320312 731.632812 273.222656 C 731.632812 273.027344 731.46875 272.871094 731.273438 272.882812 C 728.78125 273.03125 726.277344 273.011719 723.753906 272.820312 C 723.394531 272.792969 723.085938 272.65625 722.832031 272.410156 C 722.777344 272.355469 722.699219 272.324219 722.621094 272.324219 Z M 676.496094 352.671875 L 664.082031 352.671875 C 664.035156 352.671875 664 352.707031 664 352.753906 L 664 368.4375 C 664 368.5 664.050781 368.546875 664.113281 368.546875 L 680.007812 368.546875 C 680.039062 368.546875 680.066406 368.539062 680.089844 368.523438 C 680.203125 368.445312 680.21875 368.3125 680.128906 368.132812 C 680.074219 368.019531 680.042969 367.875 680.042969 367.695312 C 680.003906 365.515625 679.996094 363.394531 680.019531 361.335938 C 680.023438 361.097656 680.128906 360.996094 680.132812 360.816406 C 680.132812 360.738281 680.070312 360.675781 679.996094 360.675781 L 676.722656 360.675781 C 676.722656 360.675781 676.71875 360.675781 676.714844 360.675781 C 676.484375 360.664062 676.40625 360.53125 676.484375 360.28125 C 676.535156 360.121094 676.554688 359.957031 676.554688 359.796875 C 676.472656 357.335938 676.484375 354.996094 676.59375 352.777344 C 676.597656 352.71875 676.554688 352.671875 676.496094 352.671875 Z M 700.566406 352.667969 C 700.515625 352.667969 700.472656 352.707031 700.472656 352.761719 L 700.472656 360.589844 C 700.472656 360.640625 700.429688 360.683594 700.378906 360.683594 L 693.878906 360.683594 C 693.828125 360.683594 693.785156 360.722656 693.785156 360.777344 L 693.785156 368.464844 C 693.785156 368.515625 693.828125 368.558594 693.878906 368.558594 L 714.210938 368.558594 C 714.265625 368.558594 714.304688 368.515625 714.304688 368.464844 L 714.304688 352.761719 C 714.304688 352.707031 714.265625 352.667969 714.210938 352.667969 Z M 595.164062 368.726562 C 595.164062 368.65625 595.105469 368.59375 595.035156 368.59375 L 587.097656 368.59375 C 587.027344 368.59375 586.96875 368.65625 586.96875 368.726562 L 586.96875 376.25 C 586.96875 376.320312 587.027344 376.378906 587.097656 376.378906 L 595.035156 376.378906 C 595.105469 376.378906 595.164062 376.320312 595.164062 376.25 Z M 820.816406 400.019531 C 820.816406 400.105469 820.75 400.171875 820.664062 400.171875 L 813.144531 400.171875 C 813.058594 400.171875 812.992188 400.238281 812.992188 400.324219 L 812.992188 415.648438 C 812.992188 415.734375 813.058594 415.800781 813.144531 415.800781 L 836.289062 415.800781 C 836.375 415.800781 836.441406 415.734375 836.441406 415.648438 L 836.441406 384.632812 C 836.441406 384.546875 836.375 384.480469 836.289062 384.480469 L 828.445312 384.480469 C 828.359375 384.480469 828.292969 384.546875 828.292969 384.632812 L 828.292969 392.257812 C 828.292969 392.34375 828.222656 392.410156 828.136719 392.410156 L 820.96875 392.410156 C 820.882812 392.410156 820.816406 392.476562 820.816406 392.5625 Z M 812.882812 384.664062 C 812.882812 384.566406 812.804688 384.492188 812.707031 384.492188 L 805.347656 384.515625 C 805.253906 384.515625 805.171875 384.59375 805.175781 384.691406 L 805.203125 392.414062 C 805.203125 392.511719 805.28125 392.585938 805.375 392.585938 L 812.738281 392.5625 C 812.832031 392.5625 812.910156 392.484375 812.910156 392.386719 Z M 796.167969 392.414062 C 796.066406 392.414062 795.984375 392.496094 795.984375 392.59375 L 795.984375 407.804688 C 795.984375 407.90625 795.902344 407.988281 795.804688 407.988281 L 788.347656 407.988281 C 788.25 407.988281 788.164062 408.070312 788.164062 408.167969 L 788.164062 415.648438 C 788.164062 415.75 788.082031 415.832031 787.984375 415.832031 L 780.78125 415.832031 C 780.679688 415.832031 780.597656 415.914062 780.597656 416.015625 L 780.597656 431.921875 C 780.597656 432.023438 780.679688 432.105469 780.78125 432.105469 L 787.984375 432.105469 C 788.082031 432.105469 788.164062 432.023438 788.164062 431.921875 L 788.164062 424.199219 C 788.164062 424.101562 788.25 424.019531 788.347656 424.019531 L 796.074219 424.019531 C 796.175781 424.019531 796.257812 423.9375 796.257812 423.835938 L 796.257812 415.972656 C 796.257812 415.871094 796.339844 415.789062 796.441406 415.789062 L 804.65625 415.789062 C 804.753906 415.789062 804.835938 415.707031 804.835938 415.609375 L 804.835938 392.59375 C 804.835938 392.496094 804.753906 392.414062 804.65625 392.414062 Z M 748.347656 392.535156 L 740.871094 392.519531 C 740.59375 392.515625 740.371094 392.738281 740.371094 393.015625 L 740.371094 400.050781 C 740.371094 400.183594 740.480469 400.292969 740.613281 400.292969 L 754.417969 400.292969 C 754.628906 400.292969 754.800781 400.464844 754.800781 400.671875 L 754.800781 407.792969 C 754.800781 407.90625 754.886719 407.992188 754.996094 407.992188 L 764.277344 407.992188 C 764.425781 407.992188 764.546875 407.871094 764.546875 407.722656 L 764.546875 393.371094 C 764.546875 393.183594 764.394531 393.039062 764.207031 393.046875 C 763.472656 393.074219 762.800781 393.085938 762.195312 393.070312 C 761.195312 393.050781 757.355469 393 750.683594 392.921875 C 749.546875 392.90625 748.777344 392.785156 748.375 392.546875 C 748.367188 392.539062 748.355469 392.535156 748.347656 392.535156 Z M 805.007812 480.046875 L 805.019531 487.398438 C 805.019531 487.613281 805.195312 487.785156 805.410156 487.785156 L 844.84375 487.785156 C 844.925781 487.785156 844.988281 487.722656 844.988281 487.640625 L 844.988281 479.78125 C 844.988281 479.726562 845.03125 479.683594 845.082031 479.683594 L 853.316406 479.683594 C 853.390625 479.683594 853.449219 479.625 853.449219 479.554688 L 853.449219 472.242188 C 853.449219 472.050781 853.296875 471.898438 853.105469 471.898438 L 836.796875 471.898438 C 836.753906 471.898438 836.714844 471.933594 836.714844 471.980469 L 836.714844 479.574219 C 836.714844 479.65625 836.652344 479.722656 836.566406 479.722656 L 813.347656 479.722656 C 813.28125 479.722656 813.222656 479.667969 813.222656 479.601562 L 813.222656 472.046875 C 813.222656 471.960938 813.152344 471.890625 813.066406 471.890625 L 805.015625 471.890625 C 804.945312 471.890625 804.886719 471.835938 804.886719 471.765625 L 804.886719 464.6875 C 804.886719 464.476562 804.714844 464.304688 804.503906 464.304688 L 796.5 464.304688 C 796.414062 464.304688 796.34375 464.234375 796.339844 464.148438 L 796.308594 456.453125 C 796.320312 456.308594 796.394531 456.234375 796.527344 456.238281 C 798.929688 456.261719 801.339844 456.265625 803.75 456.25 L 804.804688 456.273438 C 804.898438 456.273438 804.976562 456.355469 804.976562 456.449219 L 804.976562 463.800781 C 804.976562 463.953125 805.101562 464.082031 805.257812 464.082031 L 820.726562 464.03125 C 820.824219 464.121094 820.875 464.21875 820.886719 464.324219 L 820.871094 471.671875 C 820.871094 471.789062 820.964844 471.886719 821.082031 471.886719 L 828.480469 471.886719 C 828.546875 471.886719 828.605469 471.832031 828.605469 471.765625 L 828.605469 464.242188 C 828.605469 464.164062 828.664062 464.101562 828.746094 464.101562 L 844.851562 464.101562 C 844.964844 464.101562 845.054688 464.011719 845.050781 463.898438 L 844.964844 456.585938 L 844.976562 456.425781 C 844.980469 456.328125 845.058594 456.25 845.15625 456.25 L 851.539062 456.253906 L 853.496094 456.261719 C 853.578125 456.261719 853.648438 456.332031 853.648438 456.414062 L 853.648438 471.4375 C 853.648438 471.707031 853.867188 471.929688 854.140625 471.929688 L 861.023438 471.929688 C 861.199219 471.929688 861.335938 471.789062 861.335938 471.613281 L 861.335938 432.425781 C 861.335938 432.308594 861.242188 432.210938 861.125 432.210938 L 853.703125 432.210938 C 853.582031 432.210938 853.484375 432.316406 853.496094 432.4375 C 853.59375 433.417969 853.640625 434.503906 853.636719 435.703125 C 853.613281 442.765625 853.609375 446.96875 853.625 448.300781 C 853.625 448.355469 853.582031 448.398438 853.527344 448.398438 L 836.890625 448.398438 C 836.828125 448.398438 836.773438 448.34375 836.773438 448.28125 L 836.734375 439.859375 C 836.761719 439.824219 836.777344 439.773438 836.792969 439.699219 C 836.984375 439.789062 837.132812 439.835938 837.238281 439.835938 C 839.839844 439.824219 842.40625 439.835938 844.933594 439.855469 C 844.976562 439.859375 845.007812 439.824219 845.007812 439.785156 L 845.007812 432.265625 C 845.007812 432.179688 845.070312 432.117188 845.15625 432.117188 L 853.25 432.117188 C 853.363281 432.117188 853.457031 432.027344 853.457031 431.914062 C 853.441406 429.667969 853.445312 427.15625 853.46875 424.382812 C 853.472656 424.25 853.386719 424.175781 853.214844 424.15625 C 853.023438 424.105469 852.828125 424.082031 852.632812 424.082031 C 836.230469 424.097656 820.0625 424.097656 804.128906 424.078125 C 801.339844 424.074219 799.128906 424.09375 797.492188 424.132812 C 797.296875 424.136719 797.003906 424.171875 796.617188 424.238281 C 796.464844 424.261719 796.351562 424.394531 796.351562 424.546875 L 796.351562 432.003906 C 796.351562 432.074219 796.296875 432.132812 796.226562 432.132812 L 788.46875 432.132812 C 788.296875 432.132812 788.15625 432.269531 788.15625 432.445312 L 788.15625 471.453125 C 788.15625 471.691406 788.347656 471.878906 788.585938 471.878906 L 796.328125 471.878906 C 796.394531 471.878906 796.453125 471.933594 796.453125 472.003906 L 796.453125 479.359375 C 796.453125 479.515625 796.578125 479.640625 796.730469 479.636719 C 797.414062 479.632812 800.074219 479.621094 804.714844 479.605469 C 804.957031 479.605469 805.054688 479.753906 805.007812 480.046875 Z M 805.007812 480.046875 " fill-opacity="1" fill-rule="nonzero"/></g><path fill="#573829" d="M 722.832031 272.410156 C 723.085938 272.65625 723.394531 272.792969 723.753906 272.820312 C 726.277344 273.011719 728.78125 273.03125 731.273438 272.882812 C 731.46875 272.871094 731.632812 273.027344 731.632812 273.222656 C 731.621094 275.320312 731.632812 277.324219 731.679688 279.246094 C 731.6875 279.59375 731.753906 279.847656 731.878906 279.996094 C 732.054688 280.207031 732.285156 280.328125 732.582031 280.351562 C 734.410156 280.507812 736.605469 280.554688 739.164062 280.488281 C 739.246094 280.484375 739.324219 280.472656 739.398438 280.445312 C 739.761719 280.304688 740.027344 280.378906 740.191406 280.664062 C 740.195312 280.671875 740.195312 280.675781 740.195312 280.6875 L 740.167969 295.480469 C 740.167969 295.570312 740.117188 295.65625 740.039062 295.699219 C 739.011719 296.292969 738.128906 296.21875 736.976562 296.246094 C 734.957031 296.289062 733.195312 296.25 731.6875 296.128906 C 731.632812 296.125 731.585938 296.082031 731.582031 296.023438 C 731.378906 293.367188 731.324219 290.851562 731.417969 288.472656 C 731.421875 288.3125 731.296875 288.175781 731.132812 288.175781 L 723.761719 288.175781 C 723.667969 288.175781 723.589844 288.253906 723.589844 288.351562 L 723.589844 296.191406 C 723.589844 296.335938 723.417969 296.414062 723.308594 296.320312 C 723.175781 296.210938 723.058594 296.179688 722.957031 296.226562 C 722.910156 296.25 722.878906 296.296875 722.878906 296.347656 L 722.878906 312.640625 C 722.878906 312.976562 723.132812 313.253906 723.464844 313.285156 C 726.078125 313.546875 727.785156 313.503906 731.054688 313.476562 C 731.335938 313.472656 731.5625 313.699219 731.5625 313.980469 L 731.5625 327.820312 C 731.5625 328.15625 731.808594 328.4375 732.136719 328.484375 C 732.980469 328.609375 733.585938 328.671875 733.949219 328.683594 C 738.863281 328.769531 743.410156 328.789062 747.585938 328.746094 C 747.707031 328.746094 747.816406 328.804688 747.882812 328.902344 C 748.097656 329.214844 747.9375 329.683594 747.929688 329.984375 C 747.871094 332.105469 747.9375 334.117188 748.128906 336.023438 C 748.160156 336.339844 748.425781 336.578125 748.742188 336.578125 L 770.773438 336.578125 C 771.035156 336.578125 771.242188 336.785156 771.242188 337.042969 L 771.242188 343.515625 C 771.242188 343.734375 771.066406 343.914062 770.84375 343.921875 C 769.203125 343.960938 767.296875 343.972656 765.132812 343.949219 C 764.730469 343.941406 764.386719 344.058594 764.109375 344.296875 C 764.050781 344.347656 763.980469 344.386719 763.90625 344.414062 C 763.554688 344.53125 763.128906 344.589844 762.625 344.59375 C 758.289062 344.621094 754.773438 344.628906 752.082031 344.613281 C 743.746094 344.574219 734.6875 344.554688 724.910156 344.558594 C 724.125 344.558594 723.921875 344.117188 723.921875 343.382812 C 723.917969 340.816406 723.914062 338.660156 723.910156 336.921875 C 723.910156 336.292969 723.609375 335.984375 723.019531 336.003906 C 722.269531 336.027344 707.300781 336.039062 678.109375 336.039062 C 677.328125 336.039062 677.144531 335.519531 677.140625 334.789062 C 677.125 332.308594 677.117188 330.660156 677.121094 329.84375 C 677.121094 328.902344 676.976562 328.082031 678.257812 328.078125 C 681.292969 328.070312 683.359375 328.078125 684.457031 328.097656 C 685.007812 328.109375 685.300781 327.84375 685.332031 327.296875 C 685.382812 326.371094 685.394531 324.488281 685.359375 321.644531 C 685.351562 320.878906 685.519531 320.472656 686.347656 320.476562 C 690.585938 320.507812 700.136719 320.5 715 320.453125 C 715.929688 320.453125 716.082031 319.988281 716.082031 319.121094 C 716.082031 317.035156 716.082031 315.261719 716.082031 313.804688 C 716.082031 313.261719 715.78125 312.988281 715.1875 312.976562 C 711.929688 312.933594 707.339844 312.917969 701.414062 312.921875 C 700.816406 312.921875 700.515625 312.625 700.515625 312.027344 C 700.515625 309.957031 700.527344 307.886719 700.542969 305.820312 C 700.546875 305.355469 700.828125 305.117188 701.394531 305.105469 C 703 305.074219 704.675781 305.054688 706.421875 305.042969 C 707.019531 305.039062 707.316406 304.695312 707.320312 304.011719 C 707.324219 302.289062 707.324219 297.292969 707.324219 289.019531 C 707.324219 288.402344 707.035156 288.101562 706.460938 288.105469 C 706.09375 288.109375 704.472656 288.117188 701.605469 288.132812 C 700.597656 288.136719 700.507812 287.5625 700.507812 286.671875 C 700.507812 283.511719 700.515625 281.648438 700.527344 281.078125 C 700.539062 280.542969 700.820312 280.265625 701.371094 280.25 C 702.015625 280.230469 703.695312 280.238281 706.414062 280.277344 C 706.984375 280.285156 707.285156 279.984375 707.316406 279.378906 C 707.34375 278.921875 707.335938 276.839844 707.289062 273.140625 C 707.28125 272.597656 707.578125 272.324219 708.183594 272.324219 C 710.523438 272.320312 715.335938 272.320312 722.621094 272.324219 C 722.699219 272.324219 722.777344 272.355469 722.832031 272.410156 Z M 722.832031 272.410156 " fill-opacity="1" fill-rule="nonzero"/><path fill="#df8012" d="M 676.496094 352.671875 C 676.554688 352.671875 676.597656 352.71875 676.59375 352.777344 C 676.484375 354.996094 676.472656 357.335938 676.554688 359.796875 C 676.554688 359.957031 676.535156 360.121094 676.484375 360.28125 C 676.40625 360.53125 676.484375 360.664062 676.714844 360.675781 C 676.71875 360.675781 676.722656 360.675781 676.722656 360.675781 L 679.996094 360.675781 C 680.070312 360.675781 680.132812 360.738281 680.132812 360.816406 C 680.128906 360.996094 680.023438 361.097656 680.019531 361.335938 C 679.996094 363.394531 680.003906 365.515625 680.042969 367.695312 C 680.042969 367.875 680.074219 368.019531 680.128906 368.132812 C 680.21875 368.3125 680.203125 368.445312 680.089844 368.523438 C 680.066406 368.539062 680.039062 368.546875 680.007812 368.546875 L 664.113281 368.546875 C 664.050781 368.546875 664 368.5 664 368.4375 L 664 352.753906 C 664 352.707031 664.035156 352.671875 664.082031 352.671875 Z M 676.496094 352.671875 " fill-opacity="1" fill-rule="nonzero"/><path fill="#df8012" d="M 700.566406 352.667969 L 714.210938 352.667969 C 714.265625 352.667969 714.304688 352.707031 714.304688 352.761719 L 714.304688 368.464844 C 714.304688 368.515625 714.265625 368.558594 714.210938 368.558594 L 693.878906 368.558594 C 693.828125 368.558594 693.785156 368.515625 693.785156 368.464844 L 693.785156 360.777344 C 693.785156 360.722656 693.828125 360.683594 693.878906 360.683594 L 700.378906 360.683594 C 700.429688 360.683594 700.472656 360.640625 700.472656 360.589844 L 700.472656 352.761719 C 700.472656 352.707031 700.515625 352.667969 700.566406 352.667969 Z M 700.566406 352.667969 " fill-opacity="1" fill-rule="nonzero"/><path fill="#573829" d="M 748.375 392.546875 C 748.777344 392.785156 749.546875 392.90625 750.683594 392.921875 C 757.355469 393 761.195312 393.050781 762.195312 393.070312 C 762.800781 393.085938 763.472656 393.074219 764.207031 393.046875 C 764.394531 393.039062 764.546875 393.183594 764.546875 393.371094 L 764.546875 407.722656 C 764.546875 407.871094 764.425781 407.992188 764.277344 407.992188 L 754.996094 407.992188 C 754.886719 407.992188 754.800781 407.90625 754.800781 407.792969 L 754.800781 400.671875 C 754.800781 400.464844 754.628906 400.292969 754.417969 400.292969 L 740.613281 400.292969 C 740.480469 400.292969 740.371094 400.183594 740.371094 400.050781 L 740.371094 393.015625 C 740.371094 392.738281 740.59375 392.515625 740.871094 392.519531 L 748.347656 392.535156 C 748.355469 392.535156 748.367188 392.539062 748.375 392.546875 Z M 748.375 392.546875 " fill-opacity="1" fill-rule="nonzero"/><path fill="#ac4f1f" d="M 853.214844 424.15625 L 853.011719 424.167969 C 852.875 424.175781 852.800781 424.328125 852.878906 424.4375 L 853.011719 424.628906 C 853.046875 424.675781 853.0625 424.730469 853.0625 424.785156 L 853.0625 431.335938 C 853.0625 431.523438 852.914062 431.675781 852.726562 431.675781 C 849.050781 431.714844 846.765625 431.722656 845.878906 431.710938 C 845.046875 431.695312 844.570312 431.90625 844.601562 432.800781 C 844.679688 435.125 844.6875 437.210938 844.617188 439.066406 C 844.613281 439.226562 844.480469 439.355469 844.316406 439.347656 C 843.648438 439.332031 841.15625 439.308594 836.839844 439.289062 C 836.722656 439.289062 836.628906 439.386719 836.640625 439.5 C 836.644531 439.589844 836.695312 439.65625 836.792969 439.699219 C 836.777344 439.773438 836.761719 439.824219 836.734375 439.859375 C 836.640625 439.691406 836.523438 439.773438 836.386719 440.09375 C 836.347656 440.175781 836.328125 440.269531 836.328125 440.359375 C 836.324219 441.59375 836.316406 443.925781 836.304688 447.355469 C 836.304688 448.308594 836.621094 448.859375 837.59375 448.878906 C 839.503906 448.917969 841.410156 448.910156 843.308594 448.867188 C 846.355469 448.796875 849.824219 448.933594 853.214844 448.898438 C 853.289062 448.898438 853.363281 448.882812 853.433594 448.855469 C 853.941406 448.652344 854.195312 448.328125 854.191406 447.882812 C 854.175781 443.515625 854.175781 440.269531 854.199219 438.140625 C 854.222656 436.433594 854.179688 434.773438 854.082031 433.164062 C 854.070312 432.960938 854.234375 432.78125 854.441406 432.78125 L 860.601562 432.78125 C 860.765625 432.78125 860.898438 432.914062 860.898438 433.078125 L 860.898438 471.019531 C 860.898438 471.246094 860.71875 471.425781 860.492188 471.425781 L 854.515625 471.425781 C 854.328125 471.425781 854.175781 471.273438 854.175781 471.085938 L 854.175781 456.59375 C 854.175781 456.527344 854.15625 456.46875 854.117188 456.414062 C 853.578125 455.648438 852.066406 455.855469 851.269531 455.976562 C 851.15625 455.992188 851.144531 456.152344 851.257812 456.179688 L 851.539062 456.253906 L 845.15625 456.25 C 845.058594 456.25 844.980469 456.328125 844.976562 456.425781 L 844.964844 456.585938 C 844.785156 456.46875 844.695312 456.46875 844.691406 456.589844 C 844.601562 459.222656 844.601562 461.472656 844.699219 463.335938 C 844.703125 463.492188 844.601562 463.628906 844.445312 463.664062 C 844.300781 463.699219 844.019531 463.714844 843.601562 463.703125 C 842.09375 463.679688 837.265625 463.6875 829.113281 463.730469 C 828.488281 463.734375 828.195312 464.027344 828.230469 464.605469 C 828.304688 465.851562 828.21875 467.578125 828.210938 469.9375 C 828.207031 470.382812 828.371094 470.824219 828.148438 471.203125 C 828.101562 471.273438 828.027344 471.320312 827.941406 471.320312 L 821.660156 471.320312 C 821.542969 471.320312 821.449219 471.226562 821.445312 471.105469 L 821.375 464.820312 C 821.375 464.777344 821.371094 464.734375 821.355469 464.691406 C 821.222656 464.261719 821.066406 464.136719 820.886719 464.324219 C 820.875 464.21875 820.824219 464.121094 820.726562 464.03125 C 820.90625 463.847656 820.796875 463.75 820.390625 463.75 C 814.027344 463.679688 809.191406 463.664062 805.886719 463.710938 C 805.636719 463.714844 805.433594 463.5 805.449219 463.25 C 805.511719 462.082031 805.527344 460.109375 805.5 457.335938 C 805.496094 456.839844 805.429688 456.457031 805.304688 456.183594 C 805.257812 456.082031 805.164062 456.007812 805.054688 455.984375 C 804.566406 455.878906 804.085938 455.855469 803.617188 455.910156 C 803.480469 455.925781 803.453125 456.109375 803.574219 456.167969 L 803.75 456.25 C 801.339844 456.265625 798.929688 456.261719 796.527344 456.238281 C 796.394531 456.234375 796.320312 456.308594 796.308594 456.453125 C 796.019531 456.460938 795.871094 456.800781 795.871094 457.476562 C 795.867188 459.527344 795.882812 461.589844 795.917969 463.664062 C 795.933594 464.445312 796.335938 464.835938 797.136719 464.832031 C 800.652344 464.804688 803.03125 464.789062 804.28125 464.785156 C 804.441406 464.785156 804.574219 464.914062 804.574219 465.078125 L 804.574219 471.625 C 804.574219 471.886719 804.757812 472.113281 805.015625 472.171875 C 805.394531 472.25 805.8125 472.292969 806.265625 472.292969 C 808.652344 472.289062 810.726562 472.285156 812.488281 472.277344 C 812.621094 472.277344 812.726562 472.382812 812.726562 472.515625 L 812.675781 479.300781 C 812.675781 479.324219 812.679688 479.347656 812.683594 479.371094 C 812.835938 480.027344 813.402344 480.359375 814.375 480.359375 C 822.609375 480.390625 829.832031 480.367188 836.046875 480.292969 C 836.410156 480.289062 836.734375 480.164062 837.019531 479.917969 C 837.140625 479.8125 837.207031 479.660156 837.207031 479.503906 L 837.207031 472.429688 C 837.207031 472.355469 837.265625 472.296875 837.339844 472.296875 L 852.671875 472.296875 C 852.894531 472.296875 853.078125 472.480469 853.078125 472.703125 L 853.078125 479.164062 C 853.078125 479.261719 853 479.339844 852.902344 479.339844 L 845.179688 479.339844 C 844.960938 479.339844 844.769531 479.496094 844.734375 479.714844 C 844.433594 481.308594 844.609375 483.277344 844.636719 486.90625 C 844.640625 487.105469 844.480469 487.265625 844.285156 487.265625 L 805.761719 487.265625 C 805.6875 487.265625 805.621094 487.21875 805.59375 487.152344 C 805.535156 487.003906 805.503906 486.835938 805.503906 486.660156 C 805.511719 483.050781 805.507812 480.886719 805.488281 480.164062 C 805.484375 480.058594 805.453125 479.960938 805.402344 479.878906 C 805.3125 479.734375 805.085938 479.785156 805.089844 479.953125 C 805.089844 479.976562 805.0625 480.007812 805.007812 480.046875 C 805.054688 479.753906 804.957031 479.605469 804.714844 479.605469 C 800.074219 479.621094 797.414062 479.632812 796.730469 479.636719 C 796.578125 479.640625 796.453125 479.515625 796.453125 479.359375 L 796.453125 472.003906 C 796.453125 471.933594 796.394531 471.878906 796.328125 471.878906 L 788.585938 471.878906 C 788.347656 471.878906 788.15625 471.691406 788.15625 471.453125 L 788.15625 432.445312 C 788.15625 432.269531 788.296875 432.132812 788.46875 432.132812 L 796.226562 432.132812 C 796.296875 432.132812 796.351562 432.074219 796.351562 432.003906 L 796.351562 424.546875 C 796.351562 424.394531 796.464844 424.261719 796.617188 424.238281 C 797.003906 424.171875 797.296875 424.136719 797.492188 424.132812 C 799.128906 424.09375 801.339844 424.074219 804.128906 424.078125 C 820.0625 424.097656 836.230469 424.097656 852.632812 424.082031 C 852.828125 424.082031 853.023438 424.105469 853.214844 424.15625 Z M 812.65625 431.742188 C 810.242188 431.636719 807.792969 431.601562 805.304688 431.644531 C 804.773438 431.652344 804.511719 431.9375 804.511719 432.488281 C 804.546875 437.828125 804.539062 442.789062 804.488281 447.371094 C 804.488281 447.527344 804.519531 447.683594 804.578125 447.832031 L 804.738281 448.222656 C 804.800781 448.382812 804.957031 448.488281 805.128906 448.488281 L 820.542969 448.433594 C 820.582031 448.433594 820.625 448.425781 820.664062 448.410156 C 821.292969 448.15625 821.597656 447.644531 821.570312 446.875 C 821.550781 446.144531 821.496094 443.933594 821.417969 440.230469 C 821.414062 440.140625 821.394531 440.050781 821.351562 439.976562 C 821.171875 439.613281 820.859375 439.417969 820.414062 439.398438 C 818.152344 439.292969 815.925781 439.304688 813.738281 439.433594 C 813.535156 439.445312 813.359375 439.28125 813.359375 439.078125 L 813.359375 432.476562 C 813.359375 432.082031 813.050781 431.757812 812.65625 431.742188 Z M 823.582031 456.261719 C 823.605469 456.253906 823.628906 456.25 823.652344 456.238281 C 823.574219 456.457031 823.75 456.5625 824.179688 456.5625 C 827.734375 456.535156 831.761719 456.542969 836.265625 456.589844 C 836.714844 456.59375 836.972656 456.421875 837.03125 456.078125 C 837.042969 456.011719 837.027344 455.949219 836.988281 455.890625 L 831.574219 448.144531 C 831.539062 448.089844 831.492188 448.042969 831.433594 448.003906 C 830.457031 447.339844 829.453125 447.128906 828.425781 447.359375 C 828.015625 447.453125 827.726562 447.648438 827.5625 447.953125 C 826.535156 449.832031 825.953125 450.898438 825.816406 451.144531 C 824.847656 452.910156 824.011719 454.570312 823.316406 456.121094 C 823.265625 456.234375 823.347656 456.363281 823.46875 456.371094 C 823.484375 456.371094 823.523438 456.335938 823.582031 456.261719 Z M 823.582031 456.261719 " fill-opacity="1" fill-rule="nonzero"/><path fill="#df8012" d="M 853.214844 424.15625 C 853.386719 424.175781 853.472656 424.25 853.46875 424.382812 C 853.445312 427.15625 853.441406 429.667969 853.457031 431.914062 C 853.457031 432.027344 853.363281 432.117188 853.25 432.117188 L 845.15625 432.117188 C 845.070312 432.117188 845.007812 432.179688 845.007812 432.265625 L 845.007812 439.785156 C 845.007812 439.824219 844.976562 439.859375 844.933594 439.855469 C 842.40625 439.835938 839.839844 439.824219 837.238281 439.835938 C 837.132812 439.835938 836.984375 439.789062 836.792969 439.699219 C 836.695312 439.65625 836.644531 439.589844 836.640625 439.5 C 836.628906 439.386719 836.722656 439.289062 836.839844 439.289062 C 841.15625 439.308594 843.648438 439.332031 844.316406 439.347656 C 844.480469 439.355469 844.613281 439.226562 844.617188 439.066406 C 844.6875 437.210938 844.679688 435.125 844.601562 432.800781 C 844.570312 431.90625 845.046875 431.695312 845.878906 431.710938 C 846.765625 431.722656 849.050781 431.714844 852.726562 431.675781 C 852.914062 431.675781 853.0625 431.523438 853.0625 431.335938 L 853.0625 424.785156 C 853.0625 424.730469 853.046875 424.675781 853.011719 424.628906 L 852.878906 424.4375 C 852.800781 424.328125 852.875 424.175781 853.011719 424.167969 Z M 853.214844 424.15625 " fill-opacity="1" fill-rule="nonzero"/><path fill="#df8012" d="M 812.65625 431.742188 C 813.050781 431.757812 813.359375 432.082031 813.359375 432.476562 L 813.359375 439.078125 C 813.359375 439.28125 813.535156 439.445312 813.738281 439.433594 C 815.925781 439.304688 818.152344 439.292969 820.414062 439.398438 C 820.859375 439.417969 821.171875 439.613281 821.351562 439.976562 C 821.394531 440.050781 821.414062 440.140625 821.417969 440.230469 C 821.496094 443.933594 821.550781 446.144531 821.570312 446.875 C 821.597656 447.644531 821.292969 448.15625 820.664062 448.410156 C 820.625 448.425781 820.582031 448.433594 820.542969 448.433594 L 805.128906 448.488281 C 804.957031 448.488281 804.800781 448.382812 804.738281 448.222656 L 804.578125 447.832031 C 804.519531 447.683594 804.488281 447.527344 804.488281 447.371094 C 804.539062 442.789062 804.546875 437.828125 804.511719 432.488281 C 804.511719 431.9375 804.773438 431.652344 805.304688 431.644531 C 807.792969 431.601562 810.242188 431.636719 812.65625 431.742188 Z M 812.96875 432.214844 C 812.96875 432.160156 812.925781 432.117188 812.871094 432.117188 L 804.96875 432.117188 C 804.914062 432.117188 804.871094 432.160156 804.871094 432.214844 L 804.871094 447.925781 C 804.871094 447.984375 804.914062 448.027344 804.96875 448.027344 L 820.855469 448.027344 C 820.910156 448.027344 820.953125 447.984375 820.953125 447.925781 L 820.953125 439.972656 C 820.953125 439.917969 820.910156 439.871094 820.855469 439.871094 L 813.070312 439.871094 C 813.015625 439.871094 812.96875 439.828125 812.96875 439.773438 Z M 812.96875 432.214844 " fill-opacity="1" fill-rule="nonzero"/><path fill="#3c2c22" d="M 812.96875 432.214844 L 812.96875 439.773438 C 812.96875 439.828125 813.015625 439.871094 813.070312 439.871094 L 820.855469 439.871094 C 820.910156 439.871094 820.953125 439.917969 820.953125 439.972656 L 820.953125 447.925781 C 820.953125 447.984375 820.910156 448.027344 820.855469 448.027344 L 804.96875 448.027344 C 804.914062 448.027344 804.871094 447.984375 804.871094 447.925781 L 804.871094 432.214844 C 804.871094 432.160156 804.914062 432.117188 804.96875 432.117188 L 812.871094 432.117188 C 812.925781 432.117188 812.96875 432.160156 812.96875 432.214844 Z M 812.96875 432.214844 " fill-opacity="1" fill-rule="nonzero"/><path fill="#df8012" d="M 851.539062 456.253906 L 851.257812 456.179688 C 851.144531 456.152344 851.15625 455.992188 851.269531 455.976562 C 852.066406 455.855469 853.578125 455.648438 854.117188 456.414062 C 854.15625 456.46875 854.175781 456.527344 854.175781 456.59375 L 854.175781 471.085938 C 854.175781 471.273438 854.328125 471.425781 854.515625 471.425781 L 860.492188 471.425781 C 860.71875 471.425781 860.898438 471.246094 860.898438 471.019531 L 860.898438 433.078125 C 860.898438 432.914062 860.765625 432.78125 860.601562 432.78125 L 854.441406 432.78125 C 854.234375 432.78125 854.070312 432.960938 854.082031 433.164062 C 854.179688 434.773438 854.222656 436.433594 854.199219 438.140625 C 854.175781 440.269531 854.175781 443.515625 854.191406 447.882812 C 854.195312 448.328125 853.941406 448.652344 853.433594 448.855469 C 853.363281 448.882812 853.289062 448.898438 853.214844 448.898438 C 849.824219 448.933594 846.355469 448.796875 843.308594 448.867188 C 841.410156 448.910156 839.503906 448.917969 837.59375 448.878906 C 836.621094 448.859375 836.304688 448.308594 836.304688 447.355469 C 836.316406 443.925781 836.324219 441.59375 836.328125 440.359375 C 836.328125 440.269531 836.347656 440.175781 836.386719 440.09375 C 836.523438 439.773438 836.640625 439.691406 836.734375 439.859375 L 836.773438 448.28125 C 836.773438 448.34375 836.828125 448.398438 836.890625 448.398438 L 853.527344 448.398438 C 853.582031 448.398438 853.625 448.355469 853.625 448.300781 C 853.609375 446.96875 853.613281 442.765625 853.636719 435.703125 C 853.640625 434.503906 853.59375 433.417969 853.496094 432.4375 C 853.484375 432.316406 853.582031 432.210938 853.703125 432.210938 L 861.125 432.210938 C 861.242188 432.210938 861.335938 432.308594 861.335938 432.425781 L 861.335938 471.613281 C 861.335938 471.789062 861.199219 471.929688 861.023438 471.929688 L 854.140625 471.929688 C 853.867188 471.929688 853.648438 471.707031 853.648438 471.4375 L 853.648438 456.414062 C 853.648438 456.332031 853.578125 456.261719 853.496094 456.261719 Z M 851.539062 456.253906 " fill-opacity="1" fill-rule="nonzero"/><path fill="#573829" d="M 763.523438 495.996094 L 764.023438 496.027344 C 764.167969 499.441406 764.214844 502.339844 764.15625 504.71875 C 764.074219 508.214844 764.066406 510.472656 764.132812 511.480469 C 764.132812 511.53125 764.09375 511.574219 764.039062 511.570312 L 757.191406 511.328125 C 756.75 511.316406 756.390625 510.972656 756.351562 510.535156 C 756.171875 508.351562 756.128906 506.257812 756.230469 504.242188 C 756.242188 504.015625 756.0625 503.828125 755.839844 503.828125 L 748.121094 503.828125 C 747.957031 503.828125 747.820312 503.695312 747.820312 503.527344 L 747.820312 487.9375 C 747.820312 487.863281 747.757812 487.800781 747.683594 487.800781 L 740.785156 487.800781 C 740.5 487.800781 740.269531 487.570312 740.269531 487.28125 L 740.269531 480.046875 C 740.269531 479.878906 740.128906 479.738281 739.957031 479.738281 L 731.613281 479.738281 C 731.488281 479.738281 731.382812 479.636719 731.382812 479.503906 L 731.382812 456.488281 C 731.382812 456.328125 731.257812 456.203125 731.101562 456.203125 L 724.175781 456.203125 C 724.050781 456.203125 723.949219 456.101562 723.949219 455.976562 L 723.949219 448.167969 C 723.949219 448.074219 724.027344 447.996094 724.121094 447.996094 L 731.21875 447.996094 C 731.332031 447.996094 731.417969 447.910156 731.417969 447.796875 L 731.417969 439.761719 C 731.417969 439.617188 731.535156 439.5 731.679688 439.5 L 740.339844 439.5 C 740.425781 439.5 740.496094 439.574219 740.492188 439.660156 C 740.371094 442.359375 740.304688 445.574219 740.285156 449.308594 C 740.28125 450.039062 740.320312 450.933594 740.402344 451.992188 C 740.445312 452.550781 740.464844 453.4375 740.464844 454.664062 C 740.464844 455.253906 740.679688 455.742188 741.097656 456.128906 C 741.175781 456.195312 741.273438 456.238281 741.375 456.25 C 743.636719 456.492188 745.65625 456.527344 747.4375 456.347656 C 747.785156 456.3125 748.09375 456.585938 748.097656 456.9375 C 748.179688 462.519531 748.21875 466.546875 748.214844 469.027344 C 748.207031 472.074219 748.097656 475.550781 748.160156 479.144531 C 748.167969 479.722656 748.472656 480.023438 749.0625 480.046875 C 750.445312 480.109375 752.667969 480.179688 755.738281 480.25 C 755.964844 480.257812 756.144531 480.441406 756.144531 480.671875 L 756.144531 495.75 C 756.144531 495.859375 756.191406 495.960938 756.269531 496.035156 C 756.597656 496.332031 756.914062 496.492188 757.21875 496.511719 C 759.117188 496.628906 761.070312 496.632812 763.074219 496.523438 C 763.15625 496.519531 763.230469 496.492188 763.300781 496.449219 C 763.480469 496.339844 763.554688 496.1875 763.523438 495.996094 Z M 763.523438 495.996094 " fill-opacity="1" fill-rule="nonzero"/><path fill="#df8012" d="M 823.652344 456.238281 L 836.585938 456.25 C 836.675781 456.25 836.722656 456.152344 836.675781 456.082031 L 830.964844 448.019531 C 830.890625 447.914062 830.777344 447.839844 830.648438 447.808594 C 829.859375 447.632812 829.132812 447.597656 828.460938 447.695312 C 828.226562 447.726562 828.015625 447.871094 827.90625 448.082031 L 823.582031 456.261719 C 823.523438 456.335938 823.484375 456.371094 823.46875 456.371094 C 823.347656 456.363281 823.265625 456.234375 823.316406 456.121094 C 824.011719 454.570312 824.847656 452.910156 825.816406 451.144531 C 825.953125 450.898438 826.535156 449.832031 827.5625 447.953125 C 827.726562 447.648438 828.015625 447.453125 828.425781 447.359375 C 829.453125 447.128906 830.457031 447.339844 831.433594 448.003906 C 831.492188 448.042969 831.539062 448.089844 831.574219 448.144531 L 836.988281 455.890625 C 837.027344 455.949219 837.042969 456.011719 837.03125 456.078125 C 836.972656 456.421875 836.714844 456.59375 836.265625 456.589844 C 831.761719 456.542969 827.734375 456.535156 824.179688 456.5625 C 823.75 456.5625 823.574219 456.457031 823.652344 456.238281 Z M 823.652344 456.238281 " fill-opacity="1" fill-rule="nonzero"/><path fill="#3c2c22" d="M 823.652344 456.238281 C 823.628906 456.25 823.605469 456.253906 823.582031 456.261719 L 827.90625 448.082031 C 828.015625 447.871094 828.226562 447.726562 828.460938 447.695312 C 829.132812 447.597656 829.859375 447.632812 830.648438 447.808594 C 830.777344 447.839844 830.890625 447.914062 830.964844 448.019531 L 836.675781 456.082031 C 836.722656 456.152344 836.675781 456.25 836.585938 456.25 Z M 823.652344 456.238281 " fill-opacity="1" fill-rule="nonzero"/><path fill="#df8012" d="M 820.726562 464.03125 L 805.257812 464.082031 C 805.101562 464.082031 804.976562 463.953125 804.976562 463.800781 L 804.976562 456.449219 C 804.976562 456.355469 804.898438 456.273438 804.804688 456.273438 L 803.75 456.25 L 803.574219 456.167969 C 803.453125 456.109375 803.480469 455.925781 803.617188 455.910156 C 804.085938 455.855469 804.566406 455.878906 805.054688 455.984375 C 805.164062 456.007812 805.257812 456.082031 805.304688 456.183594 C 805.429688 456.457031 805.496094 456.839844 805.5 457.335938 C 805.527344 460.109375 805.511719 462.082031 805.449219 463.25 C 805.433594 463.5 805.636719 463.714844 805.886719 463.710938 C 809.191406 463.664062 814.027344 463.679688 820.390625 463.75 C 820.796875 463.75 820.90625 463.847656 820.726562 464.03125 Z M 820.726562 464.03125 " fill-opacity="1" fill-rule="nonzero"/><path fill="#df8012" d="M 796.308594 456.453125 L 796.339844 464.148438 C 796.34375 464.234375 796.414062 464.304688 796.5 464.304688 L 804.503906 464.304688 C 804.714844 464.304688 804.886719 464.476562 804.886719 464.6875 L 804.886719 471.765625 C 804.886719 471.835938 804.945312 471.890625 805.015625 471.890625 L 813.066406 471.890625 C 813.152344 471.890625 813.222656 471.960938 813.222656 472.046875 L 813.222656 479.601562 C 813.222656 479.667969 813.28125 479.722656 813.347656 479.722656 L 836.566406 479.722656 C 836.652344 479.722656 836.714844 479.65625 836.714844 479.574219 L 836.714844 471.980469 C 836.714844 471.933594 836.753906 471.898438 836.796875 471.898438 L 853.105469 471.898438 C 853.296875 471.898438 853.449219 472.050781 853.449219 472.242188 L 853.449219 479.554688 C 853.449219 479.625 853.390625 479.683594 853.316406 479.683594 L 845.082031 479.683594 C 845.03125 479.683594 844.988281 479.726562 844.988281 479.78125 L 844.988281 487.640625 C 844.988281 487.722656 844.925781 487.785156 844.84375 487.785156 L 805.410156 487.785156 C 805.195312 487.785156 805.019531 487.613281 805.019531 487.398438 L 805.007812 480.046875 C 805.0625 480.007812 805.089844 479.976562 805.089844 479.953125 C 805.085938 479.785156 805.3125 479.734375 805.402344 479.878906 C 805.453125 479.960938 805.484375 480.058594 805.488281 480.164062 C 805.507812 480.886719 805.511719 483.050781 805.503906 486.660156 C 805.503906 486.835938 805.535156 487.003906 805.59375 487.152344 C 805.621094 487.21875 805.6875 487.265625 805.761719 487.265625 L 844.285156 487.265625 C 844.480469 487.265625 844.640625 487.105469 844.636719 486.90625 C 844.609375 483.277344 844.433594 481.308594 844.734375 479.714844 C 844.769531 479.496094 844.960938 479.339844 845.179688 479.339844 L 852.902344 479.339844 C 853 479.339844 853.078125 479.261719 853.078125 479.164062 L 853.078125 472.703125 C 853.078125 472.480469 852.894531 472.296875 852.671875 472.296875 L 837.339844 472.296875 C 837.265625 472.296875 837.207031 472.355469 837.207031 472.429688 L 837.207031 479.503906 C 837.207031 479.660156 837.140625 479.8125 837.019531 479.917969 C 836.734375 480.164062 836.410156 480.289062 836.046875 480.292969 C 829.832031 480.367188 822.609375 480.390625 814.375 480.359375 C 813.402344 480.359375 812.835938 480.027344 812.683594 479.371094 C 812.679688 479.347656 812.675781 479.324219 812.675781 479.300781 L 812.726562 472.515625 C 812.726562 472.382812 812.621094 472.277344 812.488281 472.277344 C 810.726562 472.285156 808.652344 472.289062 806.265625 472.292969 C 805.8125 472.292969 805.394531 472.25 805.015625 472.171875 C 804.757812 472.113281 804.574219 471.886719 804.574219 471.625 L 804.574219 465.078125 C 804.574219 464.914062 804.441406 464.785156 804.28125 464.785156 C 803.03125 464.789062 800.652344 464.804688 797.136719 464.832031 C 796.335938 464.835938 795.933594 464.445312 795.917969 463.664062 C 795.882812 461.589844 795.867188 459.527344 795.871094 457.476562 C 795.871094 456.800781 796.019531 456.460938 796.308594 456.453125 Z M 796.308594 456.453125 " fill-opacity="1" fill-rule="nonzero"/><path fill="#df8012" d="M 844.964844 456.585938 L 845.050781 463.898438 C 845.054688 464.011719 844.964844 464.101562 844.851562 464.101562 L 828.746094 464.101562 C 828.664062 464.101562 828.605469 464.164062 828.605469 464.242188 L 828.605469 471.765625 C 828.605469 471.832031 828.546875 471.886719 828.480469 471.886719 L 821.082031 471.886719 C 820.964844 471.886719 820.871094 471.789062 820.871094 471.671875 L 820.886719 464.324219 C 821.066406 464.136719 821.222656 464.261719 821.355469 464.691406 C 821.371094 464.734375 821.375 464.777344 821.375 464.820312 L 821.445312 471.105469 C 821.449219 471.226562 821.542969 471.320312 821.660156 471.320312 L 827.941406 471.320312 C 828.027344 471.320312 828.101562 471.273438 828.148438 471.203125 C 828.371094 470.824219 828.207031 470.382812 828.210938 469.9375 C 828.21875 467.578125 828.304688 465.851562 828.230469 464.605469 C 828.195312 464.027344 828.488281 463.734375 829.113281 463.730469 C 837.265625 463.6875 842.09375 463.679688 843.601562 463.703125 C 844.019531 463.714844 844.300781 463.699219 844.445312 463.664062 C 844.601562 463.628906 844.703125 463.492188 844.699219 463.335938 C 844.601562 461.472656 844.601562 459.222656 844.691406 456.589844 C 844.695312 456.46875 844.785156 456.46875 844.964844 456.585938 Z M 844.964844 456.585938 " fill-opacity="1" fill-rule="nonzero"/></svg>